<svg 
 xmlns="http://www.w3.org/2000/svg"
 xmlns:xlink="http://www.w3.org/1999/xlink"
 width="93px" height="80px">
<path fill-rule="evenodd"  fill="rgb(255, 255, 255)"
 d="M92.968,70.868 L87.716,80.000 L64.945,80.000 L64.945,76.349 L46.963,76.349 L28.981,76.349 L28.981,80.000 L6.213,80.000 L0.960,70.868 L12.344,51.070 L15.495,52.897 L24.486,37.261 L33.477,21.625 L30.326,19.798 L41.711,-0.000 L52.216,-0.000 L63.601,19.798 L60.449,21.626 L69.440,37.261 L78.431,52.897 L81.582,51.070 L92.968,70.868 ZM64.713,40.001 L46.963,9.133 L46.963,9.133 L29.213,40.001 L11.463,70.869 L46.963,70.869 L82.463,70.869 L64.713,40.001 ZM43.448,58.127 L50.479,58.127 L50.479,65.185 L43.448,65.190 L43.448,58.127 ZM43.448,29.898 L50.479,29.898 L50.479,55.779 L43.448,55.779 L43.448,29.898 Z"/>
</svg>