<svg 
 xmlns="http://www.w3.org/2000/svg"
 xmlns:xlink="http://www.w3.org/1999/xlink"
 width="250px" height="286px">
<path fill-rule="evenodd"  fill="rgb(190, 0, 0)"
 d="M145.243,254.488 L145.672,254.783 C145.450,255.112 145.211,255.392 144.953,255.621 C144.546,255.989 144.122,256.261 143.683,256.436 C143.243,256.612 142.761,256.699 142.236,256.699 C141.075,256.699 140.131,256.268 139.406,255.406 C138.806,254.690 138.505,253.839 138.505,252.851 C138.505,252.125 138.672,251.467 139.004,250.878 C139.336,250.290 139.794,249.822 140.379,249.475 C140.963,249.128 141.593,248.954 142.268,248.954 C142.629,248.954 142.964,249.003 143.273,249.102 C143.582,249.200 143.896,249.359 144.214,249.577 L144.386,249.083 L144.772,249.083 L145.452,251.579 L144.953,251.718 C144.685,251.142 144.482,250.756 144.342,250.559 C144.114,250.241 143.829,249.989 143.487,249.802 C143.146,249.616 142.770,249.523 142.359,249.523 C141.877,249.523 141.433,249.653 141.027,249.913 C140.622,250.172 140.293,250.553 140.041,251.054 C139.789,251.556 139.663,252.120 139.663,252.746 C139.663,253.391 139.791,253.966 140.046,254.471 C140.302,254.976 140.647,255.364 141.083,255.636 C141.519,255.909 141.989,256.045 142.493,256.045 C142.968,256.045 143.454,255.908 143.951,255.635 C144.448,255.362 144.878,254.980 145.243,254.488 ZM147.053,249.534 L147.289,249.534 C147.500,249.534 147.649,249.557 147.737,249.602 C147.824,249.646 147.888,249.717 147.927,249.812 C147.966,249.908 147.986,250.094 147.986,250.371 L147.986,255.309 C147.986,255.571 147.966,255.747 147.927,255.838 C147.888,255.929 147.824,255.999 147.737,256.047 C147.649,256.095 147.500,256.120 147.289,256.120 L147.053,256.120 L147.053,256.571 L149.915,256.571 L149.915,256.120 L149.696,256.120 C149.477,256.120 149.327,256.097 149.243,256.050 C149.159,256.003 149.093,255.929 149.047,255.827 C149.001,255.725 148.977,255.553 148.977,255.309 L148.977,250.484 C148.977,250.178 148.999,249.972 149.042,249.866 C149.085,249.760 149.152,249.678 149.245,249.620 C149.338,249.563 149.488,249.534 149.696,249.534 L149.915,249.534 L149.915,249.083 L147.053,249.083 L147.053,249.534 ZM136.917,255.908 C136.817,255.827 136.693,255.691 136.547,255.497 L134.245,252.472 L136.196,250.127 C136.421,249.854 136.597,249.687 136.723,249.626 C136.850,249.565 137.059,249.534 137.348,249.534 L137.348,249.083 L134.922,249.083 L134.922,249.534 L135.196,249.534 C135.374,249.534 135.491,249.550 135.547,249.583 C135.602,249.615 135.630,249.660 135.630,249.718 C135.630,249.812 135.558,249.949 135.416,250.130 L133.887,252.035 L132.487,250.130 C132.379,249.985 132.315,249.892 132.294,249.848 C132.272,249.805 132.262,249.762 132.262,249.718 C132.262,249.653 132.290,249.606 132.347,249.577 C132.404,249.549 132.540,249.534 132.755,249.534 L132.980,249.534 L132.980,249.083 L130.123,249.083 L130.123,249.534 C130.405,249.534 130.609,249.566 130.736,249.632 C130.863,249.697 131.027,249.862 131.227,250.130 L133.227,252.774 L130.975,255.497 C130.814,255.694 130.682,255.832 130.578,255.910 C130.474,255.989 130.372,256.044 130.270,256.074 C130.168,256.105 130.006,256.120 129.785,256.120 L129.785,256.571 L132.206,256.571 L132.206,256.120 L131.981,256.120 C131.781,256.120 131.654,256.109 131.601,256.087 C131.519,256.055 131.478,256.005 131.478,255.937 C131.478,255.901 131.488,255.863 131.510,255.824 C131.524,255.792 131.588,255.706 131.703,255.566 L133.575,253.207 L135.287,255.497 C135.423,255.683 135.494,255.785 135.501,255.803 C135.523,255.846 135.533,255.887 135.533,255.926 C135.533,255.994 135.504,256.044 135.445,256.074 C135.386,256.105 135.246,256.120 135.024,256.120 L134.799,256.120 L134.799,256.571 L137.667,256.571 L137.667,256.120 C137.453,256.120 137.299,256.105 137.206,256.074 C137.113,256.044 137.017,255.988 136.917,255.908 ZM123.799,255.014 L121.591,249.083 L119.229,249.083 L119.229,249.534 L119.486,249.534 C119.719,249.534 119.881,249.556 119.972,249.599 C120.063,249.642 120.128,249.708 120.167,249.796 C120.207,249.884 120.226,250.065 120.226,250.339 L120.226,255.229 C120.226,255.518 120.203,255.713 120.157,255.811 C120.110,255.910 120.032,255.986 119.923,256.039 C119.814,256.093 119.633,256.120 119.379,256.120 L119.229,256.120 L119.229,256.571 L121.861,256.571 L121.861,256.120 L121.690,256.120 C121.436,256.120 121.260,256.094 121.162,256.041 C121.063,255.989 120.991,255.915 120.944,255.820 C120.898,255.725 120.875,255.542 120.875,255.272 L120.875,249.969 L123.332,256.571 L123.868,256.571 L126.310,249.872 L126.310,255.384 C126.310,255.467 126.301,255.581 126.283,255.728 C126.276,255.799 126.244,255.868 126.189,255.935 C126.134,256.001 126.064,256.048 125.980,256.077 C125.896,256.106 125.763,256.120 125.581,256.120 L125.377,256.120 L125.377,256.571 L128.234,256.571 L128.234,256.120 L128.041,256.120 C127.805,256.120 127.643,256.095 127.556,256.047 C127.468,255.999 127.406,255.928 127.368,255.835 C127.331,255.742 127.312,255.540 127.312,255.229 L127.312,250.291 C127.312,250.064 127.335,249.901 127.382,249.802 C127.428,249.702 127.492,249.633 127.572,249.593 C127.652,249.554 127.809,249.534 128.041,249.534 L128.234,249.534 L128.234,249.083 L125.955,249.083 L123.799,255.014 ZM104.654,255.014 L102.447,249.083 L100.085,249.083 L100.085,249.534 L100.342,249.534 C100.574,249.534 100.736,249.556 100.827,249.599 C100.918,249.642 100.983,249.708 101.023,249.796 C101.062,249.884 101.082,250.065 101.082,250.339 L101.082,255.229 C101.082,255.518 101.058,255.713 101.012,255.811 C100.966,255.910 100.888,255.986 100.779,256.039 C100.670,256.093 100.489,256.120 100.235,256.120 L100.085,256.120 L100.085,256.571 L102.716,256.571 L102.716,256.120 L102.545,256.120 C102.291,256.120 102.115,256.094 102.017,256.041 C101.919,255.989 101.846,255.915 101.800,255.820 C101.753,255.725 101.730,255.542 101.730,255.272 L101.730,249.969 L104.188,256.571 L104.723,256.571 L107.165,249.872 L107.165,255.384 C107.165,255.467 107.156,255.581 107.138,255.728 C107.131,255.799 107.100,255.868 107.045,255.935 C106.989,256.001 106.919,256.048 106.835,256.077 C106.752,256.106 106.618,256.120 106.436,256.120 L106.233,256.120 L106.233,256.571 L109.089,256.571 L109.089,256.120 L108.896,256.120 C108.660,256.120 108.499,256.095 108.411,256.047 C108.324,255.999 108.261,255.928 108.224,255.835 C108.186,255.742 108.167,255.540 108.167,255.229 L108.167,250.291 C108.167,250.064 108.191,249.901 108.237,249.802 C108.283,249.702 108.347,249.633 108.427,249.593 C108.508,249.554 108.664,249.534 108.896,249.534 L109.089,249.534 L109.089,249.083 L106.810,249.083 L104.654,255.014 ZM116.131,255.635 C115.635,255.908 115.149,256.045 114.673,256.045 C114.170,256.045 113.700,255.909 113.264,255.636 C112.828,255.364 112.482,254.976 112.227,254.471 C111.971,253.966 111.843,253.391 111.843,252.746 C111.843,252.120 111.969,251.556 112.221,251.054 C112.473,250.553 112.802,250.172 113.207,249.913 C113.613,249.653 114.057,249.523 114.539,249.523 C114.950,249.523 115.326,249.616 115.668,249.802 C116.009,249.989 116.294,250.241 116.523,250.559 C116.662,250.756 116.866,251.142 117.134,251.718 L117.632,251.579 L116.953,249.083 L116.567,249.083 L116.394,249.577 C116.076,249.359 115.762,249.200 115.453,249.102 C115.144,249.003 114.809,248.954 114.448,248.954 C113.773,248.954 113.143,249.128 112.559,249.475 C111.975,249.822 111.516,250.290 111.184,250.878 C110.852,251.467 110.686,252.125 110.686,252.851 C110.686,253.839 110.986,254.690 111.586,255.406 C112.312,256.268 113.255,256.699 114.416,256.699 C114.941,256.699 115.424,256.612 115.863,256.436 C116.303,256.261 116.726,255.989 117.134,255.621 C117.391,255.392 117.630,255.112 117.852,254.783 L117.423,254.488 C117.059,254.980 116.628,255.362 116.131,255.635 ZM63.083,120.287 L34.341,120.287 L34.341,148.759 L63.083,148.759 L63.083,141.171 L43.897,141.171 L43.897,127.875 L63.083,127.875 L63.083,120.287 ZM250.000,101.795 L250.000,110.170 L250.000,113.406 L0.000,113.406 L0.000,110.170 L0.000,101.795 C0.966,100.827 1.508,100.284 2.475,99.317 L7.916,99.317 L7.916,29.825 L124.907,-0.001 L241.898,29.825 L241.898,99.317 L247.526,99.317 C248.492,100.284 249.034,100.827 250.000,101.795 ZM18.227,99.317 L28.200,99.317 C28.331,98.997 28.460,98.676 28.595,98.357 C33.860,85.892 41.396,74.698 50.995,65.086 C60.594,55.473 71.772,47.926 84.219,42.654 C97.108,37.195 110.797,34.427 124.907,34.427 C139.017,34.427 152.707,37.195 165.595,42.654 C178.043,47.926 189.221,55.473 198.820,65.086 C208.418,74.698 215.955,85.892 221.219,98.357 C221.354,98.676 221.483,98.997 221.615,99.317 L231.588,99.317 L231.588,37.850 L124.907,10.653 L18.227,37.850 L18.227,99.317 ZM53.863,78.281 L65.414,78.281 C67.583,74.194 69.974,70.317 72.586,66.674 C73.843,64.920 75.139,63.236 76.472,61.623 L68.070,61.623 C62.790,66.545 58.021,72.137 53.863,78.281 ZM67.196,59.558 C67.467,59.310 67.738,59.064 68.011,58.819 C67.668,59.063 67.328,59.310 66.988,59.558 L67.196,59.558 ZM81.006,59.558 L94.667,59.558 C97.129,55.220 99.766,51.457 102.544,48.300 L94.019,48.300 C89.434,51.369 85.074,55.134 81.006,59.558 ZM93.443,46.235 C93.924,45.920 94.409,45.613 94.896,45.312 C93.979,45.607 93.067,45.914 92.162,46.235 L93.443,46.235 ZM119.506,48.300 C118.652,51.261 117.792,54.979 116.964,59.558 L132.851,59.558 C132.023,54.979 131.162,51.261 130.309,48.300 L119.506,48.300 ZM129.675,46.235 C128.853,43.721 128.046,41.892 127.289,40.651 C126.498,40.632 125.704,40.622 124.907,40.622 C124.111,40.622 123.317,40.632 122.525,40.651 C121.769,41.892 120.962,43.721 120.139,46.235 L129.675,46.235 ZM147.271,48.300 C150.049,51.457 152.686,55.220 155.147,59.558 L168.809,59.558 C164.741,55.134 160.380,51.369 155.795,48.300 L147.271,48.300 ZM156.372,46.235 L157.653,46.235 C156.748,45.914 155.836,45.607 154.918,45.312 C155.406,45.613 155.890,45.920 156.372,46.235 ZM181.744,61.623 L173.343,61.623 C174.676,63.236 175.972,64.920 177.229,66.674 C179.840,70.317 182.232,74.194 184.400,78.281 L195.951,78.281 C191.794,72.137 187.024,66.545 181.744,61.623 ZM182.618,59.558 L182.826,59.558 C182.487,59.310 182.147,59.063 181.804,58.819 C182.077,59.064 182.348,59.310 182.618,59.558 ZM59.273,98.284 L81.067,98.284 C82.326,92.005 83.879,85.997 85.714,80.346 L66.658,80.346 C63.744,85.985 61.271,91.990 59.273,98.284 ZM64.348,80.346 L52.503,80.346 C48.924,85.925 45.840,91.932 43.325,98.284 L57.140,98.284 C59.116,91.951 61.524,85.957 64.348,80.346 ZM86.402,78.281 C87.775,74.269 89.292,70.446 90.948,66.844 C91.783,65.027 92.645,63.287 93.531,61.623 L79.171,61.623 C77.478,63.592 75.839,65.676 74.261,67.878 C71.905,71.165 69.737,74.643 67.754,78.281 L86.402,78.281 ZM83.167,98.284 L110.625,98.284 C111.017,92.001 111.501,85.994 112.072,80.346 L87.886,80.346 C86.024,85.987 84.444,91.992 83.167,98.284 ZM112.286,78.281 C112.703,74.373 113.161,70.645 113.662,67.130 C113.935,65.209 114.218,63.374 114.510,61.623 L95.877,61.623 C94.823,63.543 93.803,65.571 92.821,67.707 C91.286,71.046 89.875,74.581 88.587,78.281 L112.286,78.281 ZM133.212,61.623 L116.603,61.623 C116.297,63.432 115.996,65.362 115.703,67.421 C115.215,70.847 114.768,74.478 114.360,78.281 L135.455,78.281 C135.047,74.478 134.599,70.847 134.112,67.421 C133.818,65.362 133.518,63.432 133.212,61.623 ZM134.950,59.558 L152.766,59.558 C150.184,55.162 147.406,51.397 144.454,48.300 L132.468,48.300 C133.350,51.459 134.179,55.222 134.950,59.558 ZM117.347,48.300 L105.361,48.300 C102.409,51.397 99.630,55.162 97.049,59.558 L114.865,59.558 C115.635,55.222 116.465,51.459 117.347,48.300 ZM112.691,98.284 L137.124,98.284 C136.730,91.996 136.244,85.990 135.670,80.346 L114.144,80.346 C113.571,85.990 113.084,91.996 112.691,98.284 ZM137.529,78.281 L161.228,78.281 C159.939,74.581 158.528,71.046 156.993,67.707 C156.011,65.571 154.992,63.543 153.937,61.623 L135.305,61.623 C135.597,63.374 135.880,65.209 136.153,67.130 C136.653,70.645 137.112,74.373 137.529,78.281 ZM158.867,66.844 C160.523,70.446 162.039,74.269 163.412,78.281 L182.061,78.281 C180.078,74.643 177.910,71.165 175.554,67.878 C173.976,65.676 172.337,63.592 170.644,61.623 L156.284,61.623 C157.170,63.287 158.031,65.027 158.867,66.844 ZM137.743,80.346 C138.314,85.994 138.798,92.001 139.190,98.284 L166.648,98.284 C165.371,91.992 163.790,85.987 161.928,80.346 L137.743,80.346 ZM168.748,98.284 L190.542,98.284 C188.543,91.990 186.070,85.985 183.157,80.346 L164.101,80.346 C165.935,85.997 167.488,92.005 168.748,98.284 ZM192.675,98.284 L206.490,98.284 C203.974,91.932 200.891,85.925 197.312,80.346 L185.467,80.346 C188.291,85.957 190.699,91.951 192.675,98.284 ZM208.725,98.284 L214.398,98.284 C211.489,91.913 207.921,85.904 203.782,80.346 L199.803,80.346 C203.298,85.957 206.280,91.951 208.725,98.284 ZM202.202,78.281 C197.332,72.088 191.737,66.493 185.547,61.623 L184.799,61.623 C186.422,63.210 188.001,64.866 189.533,66.589 C192.794,70.257 195.778,74.162 198.482,78.281 L202.202,78.281 ZM179.453,59.558 C174.711,55.425 169.592,51.817 164.165,48.811 C163.769,48.638 163.373,48.468 162.975,48.300 L159.354,48.300 C163.694,51.478 167.779,55.241 171.580,59.558 L179.453,59.558 ZM152.497,46.235 C150.294,44.950 148.046,43.820 145.759,42.850 C143.935,42.455 142.092,42.110 140.232,41.818 C141.978,43.075 143.686,44.550 145.349,46.235 L152.497,46.235 ZM135.219,41.161 C133.392,40.969 131.549,40.828 129.693,40.739 C130.319,41.953 130.925,43.430 131.513,45.177 C131.628,45.520 131.743,45.873 131.857,46.235 L142.353,46.235 C140.027,44.101 137.645,42.408 135.219,41.161 ZM120.121,40.739 C118.265,40.828 116.423,40.969 114.595,41.161 C112.169,42.408 109.788,44.101 107.462,46.235 L117.958,46.235 C118.072,45.873 118.186,45.520 118.302,45.177 C118.890,43.430 119.495,41.953 120.121,40.739 ZM109.582,41.818 C107.723,42.110 105.880,42.455 104.056,42.850 C101.768,43.820 99.520,44.950 97.318,46.235 L104.465,46.235 C106.128,44.550 107.836,43.075 109.582,41.818 ZM90.460,48.300 L86.840,48.300 C86.442,48.468 86.045,48.638 85.650,48.811 C80.222,51.817 75.103,55.425 70.362,59.558 L78.235,59.558 C82.036,55.241 86.121,51.478 90.460,48.300 ZM65.016,61.623 L64.267,61.623 C58.077,66.493 52.483,72.088 47.613,78.281 L51.332,78.281 C54.037,74.162 57.021,70.257 60.282,66.589 C61.814,64.866 63.393,63.210 65.016,61.623 ZM46.033,80.346 C41.893,85.904 38.326,91.913 35.417,98.284 L41.089,98.284 C43.535,91.951 46.517,85.957 50.012,80.346 L46.033,80.346 ZM9.557,127.875 L22.106,127.875 L22.106,148.759 L31.663,148.759 L31.663,127.527 C31.663,123.529 28.426,120.287 24.433,120.287 L-0.000,120.287 L-0.000,148.759 L9.557,148.759 L9.557,127.875 ZM0.000,155.640 L250.000,155.640 L250.000,158.876 L250.000,173.105 C249.034,174.073 248.492,174.615 247.526,175.583 L241.898,175.583 L241.898,205.440 L240.826,206.834 C226.413,225.552 209.240,241.828 189.784,255.211 C170.329,268.593 148.997,278.803 126.380,285.556 L124.907,285.996 L123.434,285.556 C100.817,278.803 79.485,268.593 60.031,255.211 C40.575,241.828 23.402,225.552 8.989,206.834 L7.916,205.440 L7.916,175.583 L2.475,175.583 C1.508,174.615 0.967,174.073 0.000,173.105 L0.000,158.876 L0.000,155.640 ZM231.588,175.583 L222.906,175.583 C222.375,177.013 221.816,178.435 221.219,179.847 C215.955,192.311 208.418,203.505 198.820,213.118 C189.221,222.730 178.043,230.277 165.595,235.549 C152.707,241.008 139.017,243.776 124.907,243.776 C110.797,243.776 97.108,241.008 84.219,235.549 C71.772,230.277 60.594,222.730 50.995,213.118 C41.396,203.505 33.860,192.311 28.595,179.847 C27.999,178.435 27.439,177.013 26.908,175.583 L18.227,175.583 L18.227,201.911 C45.616,236.905 82.445,262.213 124.907,275.217 C167.370,262.213 204.198,236.905 231.588,201.911 L231.588,175.583 ZM195.950,199.924 L184.399,199.924 C182.231,204.010 179.840,207.887 177.229,211.529 C175.972,213.283 174.676,214.967 173.343,216.579 L181.745,216.579 C187.024,211.658 191.793,206.067 195.950,199.924 ZM182.619,218.644 C182.348,218.893 182.076,219.139 181.804,219.384 C182.146,219.140 182.487,218.893 182.827,218.644 L182.619,218.644 ZM168.809,218.644 L155.147,218.644 C152.686,222.983 150.049,226.746 147.271,229.903 L155.796,229.903 C160.381,226.834 164.742,223.069 168.809,218.644 ZM156.373,231.968 C155.891,232.283 155.406,232.590 154.918,232.891 C155.836,232.596 156.748,232.289 157.654,231.968 L156.373,231.968 ZM130.309,229.903 C131.162,226.941 132.023,223.223 132.851,218.644 L116.964,218.644 C117.792,223.223 118.652,226.941 119.506,229.903 L130.309,229.903 ZM120.139,231.968 C120.962,234.482 121.769,236.311 122.525,237.552 C123.317,237.571 124.111,237.581 124.907,237.581 C125.704,237.581 126.498,237.571 127.289,237.552 C128.046,236.311 128.853,234.482 129.675,231.968 L120.139,231.968 ZM102.543,229.903 C99.766,226.746 97.129,222.983 94.667,218.644 L81.005,218.644 C85.073,223.069 89.434,226.834 94.019,229.903 L102.543,229.903 ZM93.442,231.968 L92.161,231.968 C93.066,232.289 93.979,232.596 94.896,232.891 C94.409,232.590 93.924,232.283 93.442,231.968 ZM68.070,216.579 L76.472,216.579 C75.139,214.967 73.843,213.283 72.586,211.529 C69.975,207.887 67.583,204.010 65.415,199.924 L53.865,199.924 C58.021,206.067 62.790,211.658 68.070,216.579 ZM67.196,218.644 L66.988,218.644 C67.327,218.893 67.668,219.140 68.011,219.384 C67.738,219.139 67.466,218.893 67.196,218.644 ZM191.534,176.615 L169.378,176.615 C168.021,184.097 166.254,191.224 164.100,197.859 L183.156,197.859 C186.575,191.241 189.382,184.114 191.534,176.615 ZM185.466,197.859 L197.311,197.859 C201.505,191.321 205.019,184.196 207.735,176.615 L193.662,176.615 C193.442,177.393 193.216,178.168 192.981,178.940 C190.951,185.637 188.436,191.958 185.466,197.859 ZM163.412,199.924 C162.039,203.935 160.522,207.758 158.867,211.359 C158.031,213.175 157.170,214.916 156.284,216.579 L170.644,216.579 C172.337,214.611 173.976,212.527 175.554,210.325 C177.909,207.039 180.077,203.561 182.060,199.924 L163.412,199.924 ZM167.283,176.615 L139.385,176.615 C138.963,184.102 138.413,191.228 137.743,197.859 L161.928,197.859 C164.113,191.239 165.907,184.112 167.283,176.615 ZM137.528,199.924 C137.112,203.832 136.653,207.559 136.153,211.073 C135.880,212.993 135.597,214.828 135.305,216.579 L153.938,216.579 C154.992,214.660 156.011,212.632 156.993,210.496 C158.528,207.158 159.939,203.623 161.227,199.924 L137.528,199.924 ZM116.603,216.579 L133.212,216.579 C133.518,214.771 133.818,212.841 134.112,210.782 C134.599,207.357 135.047,203.726 135.454,199.924 L114.360,199.924 C114.768,203.726 115.215,207.357 115.703,210.782 C115.996,212.841 116.297,214.771 116.603,216.579 ZM114.865,218.644 L97.049,218.644 C99.630,223.041 102.408,226.805 105.360,229.903 L117.347,229.903 C116.465,226.743 115.635,222.980 114.865,218.644 ZM132.468,229.903 L144.454,229.903 C147.406,226.805 150.184,223.041 152.766,218.644 L134.950,218.644 C134.179,222.980 133.350,226.743 132.468,229.903 ZM137.320,176.615 L112.494,176.615 C112.919,184.107 113.471,191.234 114.145,197.859 L135.670,197.859 C136.344,191.234 136.896,184.108 137.320,176.615 ZM112.286,199.924 L88.587,199.924 C89.876,203.623 91.286,207.158 92.821,210.496 C93.803,212.632 94.823,214.660 95.877,216.579 L114.510,216.579 C114.218,214.828 113.935,212.993 113.662,211.073 C113.161,207.559 112.703,203.832 112.286,199.924 ZM90.948,211.359 C89.292,207.758 87.776,203.935 86.403,199.924 L67.755,199.924 C69.737,203.561 71.905,207.039 74.261,210.325 C75.839,212.527 77.478,214.611 79.170,216.579 L93.531,216.579 C92.645,214.916 91.783,213.175 90.948,211.359 ZM112.072,197.859 C111.401,191.228 110.852,184.102 110.429,176.615 L82.531,176.615 C83.908,184.112 85.701,191.239 87.887,197.859 L112.072,197.859 ZM80.436,176.615 L58.280,176.615 C60.433,184.114 63.239,191.241 66.659,197.859 L85.714,197.859 C83.560,191.224 81.794,184.097 80.436,176.615 ZM56.833,178.940 C56.599,178.168 56.373,177.393 56.153,176.615 L42.079,176.615 C44.796,184.196 48.310,191.321 52.504,197.859 L64.349,197.859 C61.379,191.958 58.864,185.637 56.833,178.940 ZM40.734,179.004 C40.435,178.211 40.146,177.415 39.867,176.615 L33.981,176.615 C37.121,184.220 41.185,191.348 46.034,197.859 L50.013,197.859 C46.349,191.977 43.243,185.677 40.734,179.004 ZM47.614,199.924 C52.483,206.116 58.077,211.711 64.267,216.579 L65.016,216.579 C63.393,214.992 61.814,213.337 60.282,211.614 C57.021,207.947 54.037,204.042 51.333,199.924 L47.614,199.924 ZM70.361,218.644 C75.103,222.778 80.222,226.386 85.650,229.392 C86.045,229.565 86.442,229.735 86.839,229.903 L90.460,229.903 C86.121,226.725 82.036,222.962 78.234,218.644 L70.361,218.644 ZM97.317,231.968 C99.520,233.253 101.768,234.383 104.056,235.353 C105.880,235.749 107.723,236.093 109.582,236.385 C107.836,235.128 106.128,233.653 104.465,231.968 L97.317,231.968 ZM114.595,237.042 C116.423,237.234 118.265,237.375 120.121,237.465 C119.495,236.250 118.890,234.773 118.302,233.026 C118.186,232.683 118.072,232.330 117.958,231.968 L107.462,231.968 C109.787,234.102 112.169,235.795 114.595,237.042 ZM129.693,237.465 C131.549,237.375 133.392,237.234 135.219,237.042 C137.645,235.795 140.027,234.102 142.353,231.968 L131.857,231.968 C131.743,232.330 131.628,232.683 131.513,233.026 C130.925,234.773 130.319,236.250 129.693,237.465 ZM140.232,236.385 C142.092,236.093 143.935,235.749 145.759,235.353 C148.046,234.383 150.295,233.253 152.498,231.968 L145.350,231.968 C143.687,233.653 141.979,235.128 140.232,236.385 ZM159.355,229.903 L162.976,229.903 C163.373,229.735 163.769,229.565 164.164,229.392 C169.592,226.386 174.712,222.778 179.453,218.644 L171.580,218.644 C167.779,222.962 163.694,226.725 159.355,229.903 ZM184.799,216.579 L185.548,216.579 C191.737,211.711 197.331,206.116 202.201,199.924 L198.481,199.924 C195.777,204.042 192.793,207.947 189.533,211.614 C188.001,213.337 186.422,214.992 184.799,216.579 ZM203.781,197.859 C208.629,191.348 212.694,184.220 215.834,176.615 L209.948,176.615 C209.668,177.415 209.379,178.211 209.081,179.004 C206.572,185.677 203.466,191.977 199.802,197.859 L203.781,197.859 ZM209.402,169.362 L224.695,169.362 C225.605,169.362 226.345,168.621 226.345,167.711 L226.345,166.047 C226.345,165.136 225.605,164.395 224.695,164.395 L211.464,164.395 L211.464,163.340 L226.345,163.340 L226.345,161.567 L211.051,161.567 C210.142,161.567 209.402,162.308 209.402,163.219 L209.402,164.515 C209.402,165.426 210.142,166.167 211.051,166.167 L224.283,166.167 L224.283,167.590 L209.402,167.590 L209.402,169.362 ZM189.843,167.711 C189.843,168.621 190.583,169.362 191.493,169.362 L205.137,169.362 C206.046,169.362 206.786,168.621 206.786,167.711 L206.786,161.567 L204.724,161.567 L204.724,167.590 L191.905,167.590 L191.905,161.567 L189.843,161.567 L189.843,167.711 ZM170.488,169.362 L172.550,169.362 L172.550,163.340 L177.929,163.340 L177.929,169.362 L179.991,169.362 L179.991,163.340 L185.370,163.340 L185.370,169.362 L187.432,169.362 L187.432,163.219 C187.432,162.308 186.692,161.567 185.782,161.567 L179.991,161.567 L177.929,161.567 L170.488,161.567 L170.488,169.362 ZM151.164,167.711 C151.164,168.621 151.904,169.362 152.813,169.362 L168.107,169.362 L168.107,167.590 L153.226,167.590 L153.226,166.060 L168.107,166.060 L168.107,164.580 L153.226,164.580 L153.226,163.340 L168.107,163.340 L168.107,161.567 L152.813,161.567 C151.904,161.567 151.164,162.308 151.164,163.219 L151.164,167.711 ZM131.739,169.362 L147.033,169.362 C147.942,169.362 148.682,168.621 148.682,167.711 L148.682,163.219 C148.682,162.308 147.942,161.567 147.033,161.567 L131.739,161.567 L131.739,169.362 ZM112.165,169.362 L119.605,169.362 L121.667,169.362 L129.108,169.362 L129.108,167.590 L121.667,167.590 L121.667,163.340 L129.108,163.340 L129.108,161.567 L121.667,161.567 L119.605,161.567 L112.165,161.567 L112.165,163.340 L119.605,163.340 L119.605,167.590 L112.165,167.590 L112.165,169.362 ZM91.595,161.567 L100.546,169.353 C100.778,169.554 101.068,169.655 101.358,169.655 C101.648,169.655 101.938,169.554 102.169,169.353 L111.121,161.567 L107.977,161.567 L101.358,167.324 L94.739,161.567 L91.595,161.567 ZM63.827,169.362 L79.121,169.362 C80.030,169.362 80.770,168.621 80.770,167.711 L80.770,166.047 C80.770,165.136 80.030,164.395 79.121,164.395 L65.889,164.395 L65.889,163.340 L80.770,163.340 L80.770,161.567 L65.477,161.567 C64.567,161.567 63.827,162.308 63.827,163.219 L63.827,164.515 C63.827,165.426 64.567,166.167 65.477,166.167 L78.708,166.167 L78.708,167.590 L63.827,167.590 L63.827,169.362 ZM44.280,167.711 C44.280,168.621 45.020,169.362 45.930,169.362 L59.574,169.362 C60.483,169.362 61.223,168.621 61.223,167.711 L61.223,163.219 C61.223,162.308 60.483,161.567 59.574,161.567 L45.930,161.567 C45.020,161.567 44.280,162.308 44.280,163.219 L44.280,167.711 ZM23.655,161.567 L32.606,169.353 C32.838,169.554 33.128,169.655 33.418,169.655 C33.708,169.655 33.998,169.554 34.230,169.353 L43.182,161.567 L40.037,161.567 L33.418,167.324 L26.800,161.567 L23.655,161.567 ZM218.775,127.875 L218.775,120.287 L201.014,120.287 C197.022,120.287 193.785,123.529 193.785,127.527 L193.785,141.519 C193.785,145.517 197.022,148.759 201.014,148.759 L218.775,148.759 L218.775,141.171 L203.341,141.171 L203.341,127.875 L218.775,127.875 ZM141.183,120.287 L134.095,148.759 L143.651,148.759 L148.851,127.875 L161.624,127.875 L159.735,120.287 L141.183,120.287 ZM133.801,167.590 L146.620,167.590 L146.620,163.340 L133.801,163.340 L133.801,167.590 ZM157.267,148.759 L166.824,148.759 L163.513,135.463 L153.957,135.463 L157.267,148.759 ZM58.936,137.969 L58.936,131.518 L46.330,131.518 L46.330,137.969 L58.936,137.969 ZM221.035,120.287 L221.035,148.759 L230.592,148.759 L230.592,137.969 L240.443,137.969 L240.443,148.759 L250.000,148.759 L250.000,120.287 L240.443,120.287 L240.443,131.518 L230.592,131.518 L230.592,120.287 L221.035,120.287 ZM113.818,122.967 L113.818,137.899 L120.260,137.899 L120.260,122.967 L113.818,122.967 ZM183.684,148.759 L183.684,127.875 L192.095,127.875 L192.095,120.287 L162.601,120.287 L164.490,127.875 L174.127,127.875 L174.127,148.759 L183.684,148.759 ZM105.835,120.287 L96.279,120.287 L102.001,143.271 C102.804,146.496 105.697,148.759 109.016,148.759 L125.062,148.759 C128.382,148.759 131.274,146.496 132.077,143.270 L137.800,120.287 L128.243,120.287 L123.043,141.171 L111.035,141.171 L105.835,120.287 ZM59.161,163.340 L46.342,163.340 L46.342,167.590 L59.161,167.590 L59.161,163.340 ZM85.096,148.759 L85.096,127.875 L95.302,127.875 L93.413,120.287 L65.947,120.287 L65.947,127.875 L75.540,127.875 L75.540,148.759 L85.096,148.759 Z"/>
</svg>