<svg 
 xmlns="http://www.w3.org/2000/svg"
 xmlns:xlink="http://www.w3.org/1999/xlink"
 width="3422px" height="122px">
<path fill-rule="evenodd"  fill="rgb(255, 255, 255)"
 d="M-0.000,121.999 L-0.000,-0.001 L3421.999,-0.001 L3421.999,120.999 L3421.999,121.999 L-0.000,121.999 ZM3419.999,1.998 L2.000,1.998 L1.999,119.999 L3420.000,119.999 L3419.999,1.998 ZM40.999,41.000 L40.999,61.000 L40.999,90.999 L40.999,110.998 L31.000,110.998 L21.000,110.998 L21.000,90.999 L21.000,61.000 L21.000,41.000 L31.000,41.000 L40.999,41.000 ZM56.000,61.000 L56.000,90.999 L56.000,110.998 L46.000,110.998 L46.000,90.999 L46.000,61.000 L46.000,41.000 L56.000,41.000 L56.000,61.000 ZM72.999,40.999 L69.000,40.999 L69.000,10.999 L72.999,10.999 L72.999,40.999 ZM72.000,61.000 L72.000,110.998 L70.000,110.998 L70.000,61.000 L70.000,41.000 L72.000,41.000 L72.000,61.000 ZM95.999,41.000 L95.999,110.998 L86.000,110.998 L86.000,61.000 L86.000,41.000 L90.999,41.000 L95.999,41.000 ZM121.000,110.998 L101.000,110.998 L101.000,41.000 L121.000,41.000 L121.000,110.998 ZM132.999,40.999 L128.999,40.999 L128.999,10.999 L132.999,10.999 L132.999,40.999 ZM153.000,40.999 L149.000,40.999 L149.000,10.999 L153.000,10.999 L153.000,40.999 ZM173.000,40.999 L169.000,40.999 L169.000,10.999 L173.000,10.999 L173.000,40.999 ZM172.000,61.000 L172.000,90.999 L172.000,110.998 L170.000,110.998 L170.000,90.999 L170.000,61.000 L170.000,41.000 L172.000,41.000 L172.000,61.000 ZM192.999,40.999 L188.999,40.999 L188.999,10.999 L192.999,10.999 L192.999,40.999 ZM192.000,110.998 L189.999,110.998 L189.999,41.000 L192.000,41.000 L192.000,110.998 ZM216.000,41.000 L216.000,61.000 L240.999,61.000 L246.000,61.000 L246.000,90.999 L246.000,101.000 L240.999,101.000 L230.999,101.000 L216.000,101.000 L216.000,110.998 L210.999,110.998 L206.000,110.998 L206.000,41.000 L210.999,41.000 L216.000,41.000 ZM253.000,40.999 L249.000,40.999 L249.000,10.999 L253.000,10.999 L253.000,40.999 ZM273.000,40.999 L269.000,40.999 L269.000,10.999 L273.000,10.999 L273.000,40.999 ZM292.999,40.999 L288.999,40.999 L288.999,10.999 L292.999,10.999 L292.999,40.999 ZM316.000,40.999 L306.000,40.999 L306.000,10.999 L316.000,10.999 L316.000,40.999 ZM316.000,61.000 L316.000,110.998 L306.000,110.998 L306.000,61.000 L306.000,41.000 L316.000,41.000 L316.000,61.000 ZM332.999,40.999 L328.999,40.999 L328.999,10.999 L332.999,10.999 L332.999,40.999 ZM331.999,41.000 L331.999,61.000 L331.999,90.999 L331.999,110.998 L329.999,110.998 L329.999,61.000 L329.999,41.000 L330.999,41.000 L331.999,41.000 ZM361.000,41.000 L380.999,41.000 L380.999,61.000 L380.999,90.999 L380.999,110.998 L361.000,110.998 L361.000,101.000 L350.999,101.000 L335.999,101.000 L335.999,90.999 L335.999,61.000 L361.000,61.000 L361.000,41.000 ZM395.999,41.000 L395.999,61.000 L395.999,90.999 L395.999,110.998 L386.000,110.998 L386.000,90.999 L386.000,61.000 L386.000,41.000 L390.999,41.000 L395.999,41.000 ZM413.000,40.999 L409.000,40.999 L409.000,10.999 L413.000,10.999 L413.000,40.999 ZM412.000,61.000 L412.000,90.999 L412.000,110.998 L410.000,110.998 L410.000,90.999 L410.000,61.000 L410.000,41.000 L412.000,41.000 L412.000,61.000 ZM433.999,61.000 L433.999,90.999 L433.999,110.998 L428.000,110.998 L428.000,90.999 L428.000,61.000 L428.000,41.000 L433.999,41.000 L433.999,61.000 ZM453.999,41.000 L453.999,61.000 L453.999,110.998 L450.999,110.998 L447.999,110.998 L447.999,90.999 L447.999,61.000 L447.999,41.000 L450.999,41.000 L453.999,41.000 ZM480.999,61.000 L501.000,61.000 L501.000,41.000 L510.999,41.000 L521.000,41.000 L540.999,41.000 L540.999,90.999 L540.999,110.998 L521.000,110.998 L510.999,110.998 L501.000,110.998 L501.000,101.000 L490.999,101.000 L480.999,101.000 L480.999,110.998 L461.000,110.998 L461.000,61.000 L461.000,41.000 L480.999,41.000 L480.999,61.000 ZM553.000,40.999 L548.999,40.999 L548.999,10.999 L553.000,10.999 L553.000,40.999 ZM576.000,40.999 L566.000,40.999 L566.000,10.999 L576.000,10.999 L576.000,40.999 ZM576.000,41.000 L576.000,61.000 L576.000,110.998 L566.000,110.998 L566.000,90.999 L566.000,61.000 L566.000,41.000 L571.000,41.000 L576.000,41.000 ZM592.999,40.999 L588.999,40.999 L588.999,10.999 L592.999,10.999 L592.999,40.999 ZM592.000,61.000 L592.000,110.998 L589.999,110.998 L589.999,61.000 L589.999,41.000 L592.000,41.000 L592.000,61.000 ZM613.000,61.000 L613.000,90.999 L613.000,110.998 L608.999,110.998 L608.999,90.999 L608.999,61.000 L608.999,41.000 L613.000,41.000 L613.000,61.000 ZM633.999,40.999 L628.000,40.999 L628.000,10.999 L633.999,10.999 L633.999,40.999 ZM633.999,41.000 L633.999,61.000 L633.999,110.998 L631.000,110.998 L628.000,110.998 L628.000,90.999 L628.000,61.000 L628.000,41.000 L631.000,41.000 L633.999,41.000 ZM652.999,40.999 L648.999,40.999 L648.999,10.999 L652.999,10.999 L652.999,40.999 ZM676.000,61.000 L676.000,90.999 L676.000,110.998 L665.999,110.998 L665.999,90.999 L665.999,61.000 L665.999,41.000 L676.000,41.000 L676.000,61.000 ZM695.999,40.999 L685.999,40.999 L685.999,10.999 L695.999,10.999 L695.999,40.999 ZM695.999,110.998 L686.000,110.998 L686.000,90.999 L686.000,61.000 L686.000,41.000 L695.999,41.000 L695.999,110.998 ZM713.000,40.999 L709.000,40.999 L709.000,10.999 L713.000,10.999 L713.000,40.999 ZM740.999,61.000 L740.999,90.999 L740.999,110.998 L721.000,110.998 L721.000,90.999 L721.000,61.000 L721.000,41.000 L740.999,41.000 L740.999,61.000 ZM752.999,40.999 L748.999,40.999 L748.999,10.999 L752.999,10.999 L752.999,40.999 ZM752.000,41.000 L752.000,90.999 L752.000,110.998 L750.999,110.998 L750.000,110.998 L750.000,90.999 L750.000,61.000 L750.000,41.000 L750.999,41.000 L752.000,41.000 ZM781.000,90.999 L781.000,110.998 L761.000,110.998 L761.000,90.999 L761.000,41.000 L781.000,41.000 L781.000,90.999 ZM795.999,40.999 L786.000,40.999 L786.000,10.999 L795.999,10.999 L795.999,40.999 ZM795.999,90.999 L795.999,110.998 L786.000,110.998 L786.000,90.999 L786.000,41.000 L795.999,41.000 L795.999,90.999 ZM821.000,41.000 L821.000,61.000 L821.000,90.999 L821.000,110.998 L810.999,110.998 L801.000,110.998 L801.000,90.999 L801.000,41.000 L810.999,41.000 L821.000,41.000 ZM833.000,40.999 L829.000,40.999 L829.000,10.999 L833.000,10.999 L833.000,40.999 ZM831.999,61.000 L831.999,90.999 L831.999,110.998 L830.000,110.998 L830.000,90.999 L830.000,61.000 L830.000,41.000 L831.999,41.000 L831.999,61.000 ZM856.000,61.000 L856.000,90.999 L856.000,110.998 L845.999,110.998 L845.999,90.999 L845.999,61.000 L845.999,41.000 L856.000,41.000 L856.000,61.000 ZM876.000,41.000 L876.000,61.000 L876.000,90.999 L876.000,110.998 L871.000,110.998 L865.999,110.998 L865.999,90.999 L865.999,61.000 L865.999,41.000 L871.000,41.000 L876.000,41.000 ZM893.999,40.999 L888.000,40.999 L888.000,10.999 L893.999,10.999 L893.999,40.999 ZM893.999,61.000 L893.999,90.999 L893.999,110.998 L888.000,110.998 L888.000,90.999 L888.000,61.000 L888.000,41.000 L893.999,41.000 L893.999,61.000 ZM916.000,40.999 L905.999,40.999 L905.999,10.999 L916.000,10.999 L916.000,40.999 ZM916.000,61.000 L916.000,90.999 L916.000,110.998 L905.999,110.998 L905.999,90.999 L905.999,61.000 L905.999,41.000 L916.000,41.000 L916.000,61.000 ZM936.000,40.999 L926.000,40.999 L926.000,10.999 L936.000,10.999 L936.000,40.999 ZM931.999,41.000 L931.999,61.000 L931.999,90.999 L931.999,110.998 L931.000,110.998 L930.000,110.998 L930.000,90.999 L930.000,61.000 L930.000,41.000 L931.000,41.000 L931.999,41.000 ZM965.999,61.000 L965.999,41.000 L976.000,41.000 L976.000,61.000 L976.000,90.999 L976.000,110.998 L965.999,110.998 L965.999,101.000 L961.000,101.000 L950.999,101.000 L936.000,101.000 L936.000,90.999 L936.000,61.000 L961.000,61.000 L965.999,61.000 ZM995.999,40.999 L986.000,40.999 L986.000,10.999 L995.999,10.999 L995.999,40.999 ZM995.999,41.000 L995.999,61.000 L995.999,90.999 L995.999,110.998 L990.999,110.998 L986.000,110.998 L986.000,90.999 L986.000,61.000 L986.000,41.000 L990.999,41.000 L995.999,41.000 ZM1016.000,40.999 L1005.999,40.999 L1005.999,10.999 L1016.000,10.999 L1016.000,40.999 ZM1016.000,61.000 L1016.000,90.999 L1016.000,110.998 L1005.999,110.998 L1005.999,90.999 L1005.999,61.000 L1005.999,41.000 L1016.000,41.000 L1016.000,61.000 ZM1036.000,61.000 L1065.999,61.000 L1065.999,90.999 L1065.999,101.000 L1050.999,101.000 L1036.000,101.000 L1036.000,110.998 L1025.999,110.998 L1025.999,41.000 L1036.000,41.000 L1036.000,61.000 ZM1074.000,40.999 L1068.000,40.999 L1068.000,10.999 L1074.000,10.999 L1074.000,40.999 ZM1074.000,90.999 L1074.000,110.998 L1068.000,110.998 L1068.000,90.999 L1068.000,41.000 L1074.000,41.000 L1074.000,90.999 ZM1092.999,40.999 L1089.000,40.999 L1089.000,10.999 L1092.999,10.999 L1092.999,40.999 ZM1092.000,61.000 L1092.000,90.999 L1092.000,110.998 L1089.999,110.998 L1089.999,90.999 L1089.999,61.000 L1089.999,41.000 L1092.000,41.000 L1092.000,61.000 ZM1113.999,40.999 L1107.999,40.999 L1107.999,10.999 L1113.999,10.999 L1113.999,40.999 ZM1113.999,41.000 L1113.999,61.000 L1113.999,90.999 L1113.999,110.998 L1110.999,110.998 L1107.999,110.998 L1107.999,90.999 L1107.999,61.000 L1107.999,41.000 L1110.999,41.000 L1113.999,41.000 ZM1133.000,61.000 L1133.000,90.999 L1133.000,110.998 L1128.999,110.998 L1128.999,90.999 L1128.999,61.000 L1128.999,41.000 L1133.000,41.000 L1133.000,61.000 ZM1161.000,90.999 L1161.000,110.998 L1140.999,110.998 L1140.999,90.999 L1140.999,61.000 L1140.999,41.000 L1161.000,41.000 L1161.000,90.999 ZM1173.000,90.999 L1173.000,110.998 L1171.000,110.998 L1168.999,110.998 L1168.999,90.999 L1168.999,41.000 L1173.000,41.000 L1173.000,90.999 ZM1194.000,90.999 L1194.000,110.998 L1188.000,110.998 L1188.000,90.999 L1188.000,41.000 L1194.000,41.000 L1194.000,90.999 ZM1215.999,40.999 L1205.999,40.999 L1205.999,10.999 L1215.999,10.999 L1215.999,40.999 ZM1216.000,61.000 L1216.000,90.999 L1216.000,110.998 L1205.999,110.998 L1205.999,90.999 L1205.999,61.000 L1205.999,41.000 L1216.000,41.000 L1216.000,61.000 ZM1236.000,41.000 L1236.000,61.000 L1236.000,90.999 L1236.000,110.998 L1231.000,110.998 L1225.999,110.998 L1225.999,90.999 L1225.999,61.000 L1225.999,41.000 L1231.000,41.000 L1236.000,41.000 ZM1252.999,40.999 L1248.999,40.999 L1248.999,10.999 L1252.999,10.999 L1252.999,40.999 ZM1251.999,61.000 L1251.999,90.999 L1251.999,110.998 L1250.000,110.998 L1250.000,90.999 L1250.000,61.000 L1250.000,41.000 L1251.999,41.000 L1251.999,61.000 ZM1273.000,40.999 L1268.999,40.999 L1268.999,10.999 L1273.000,10.999 L1273.000,40.999 ZM1301.000,61.000 L1301.000,90.999 L1301.000,110.998 L1291.000,110.998 L1280.999,110.998 L1280.999,90.999 L1280.999,41.000 L1301.000,41.000 L1301.000,61.000 ZM1312.999,40.999 L1308.999,40.999 L1308.999,10.999 L1312.999,10.999 L1312.999,40.999 ZM1313.000,61.000 L1313.000,90.999 L1313.000,110.998 L1308.999,110.998 L1308.999,90.999 L1308.999,61.000 L1308.999,41.000 L1313.000,41.000 L1313.000,61.000 ZM1336.000,61.000 L1336.000,90.999 L1336.000,110.998 L1325.999,110.998 L1325.999,90.999 L1325.999,61.000 L1325.999,41.000 L1336.000,41.000 L1336.000,61.000 ZM1355.999,40.999 L1346.000,40.999 L1346.000,10.999 L1355.999,10.999 L1355.999,40.999 ZM1356.000,41.000 L1356.000,61.000 L1356.000,90.999 L1356.000,110.998 L1350.999,110.998 L1346.000,110.998 L1346.000,90.999 L1346.000,61.000 L1346.000,41.000 L1350.999,41.000 L1356.000,41.000 ZM1376.000,40.999 L1365.999,40.999 L1365.999,10.999 L1376.000,10.999 L1376.000,40.999 ZM1376.000,61.000 L1376.000,90.999 L1376.000,110.998 L1365.999,110.998 L1365.999,90.999 L1365.999,61.000 L1365.999,41.000 L1376.000,41.000 L1376.000,61.000 ZM1393.000,40.999 L1389.000,40.999 L1389.000,10.999 L1393.000,10.999 L1393.000,40.999 ZM1392.999,90.999 L1392.999,110.998 L1389.000,110.998 L1389.000,90.999 L1389.000,41.000 L1392.999,41.000 L1392.999,90.999 ZM1416.000,41.000 L1416.000,61.000 L1416.000,90.999 L1416.000,110.998 L1410.999,110.998 L1405.999,110.998 L1405.999,90.999 L1405.999,41.000 L1410.999,41.000 L1416.000,41.000 ZM1436.000,61.000 L1436.000,90.999 L1436.000,110.998 L1425.999,110.998 L1425.999,90.999 L1425.999,61.000 L1425.999,41.000 L1436.000,41.000 L1436.000,61.000 ZM1452.999,40.999 L1449.000,40.999 L1449.000,10.999 L1452.999,10.999 L1452.999,40.999 ZM1472.999,40.999 L1468.999,40.999 L1468.999,10.999 L1472.999,10.999 L1472.999,40.999 ZM1501.000,61.000 L1501.000,110.998 L1480.999,110.998 L1480.999,61.000 L1480.999,41.000 L1501.000,41.000 L1501.000,61.000 ZM1513.999,61.000 L1513.999,90.999 L1513.999,110.998 L1507.999,110.998 L1507.999,90.999 L1507.999,61.000 L1507.999,41.000 L1513.999,41.000 L1513.999,61.000 ZM1536.000,40.999 L1526.000,40.999 L1526.000,10.999 L1536.000,10.999 L1536.000,40.999 ZM1531.999,41.000 L1531.999,90.999 L1531.999,110.998 L1531.000,110.998 L1529.999,110.998 L1529.999,90.999 L1529.999,61.000 L1529.999,41.000 L1531.000,41.000 L1531.999,41.000 ZM1556.000,90.999 L1556.000,110.998 L1546.000,110.998 L1546.000,90.999 L1546.000,41.000 L1556.000,41.000 L1556.000,90.999 ZM1573.999,40.999 L1567.999,40.999 L1567.999,10.999 L1573.999,10.999 L1573.999,40.999 ZM1574.000,61.000 L1574.000,90.999 L1574.000,110.998 L1568.000,110.998 L1568.000,90.999 L1568.000,61.000 L1568.000,41.000 L1574.000,41.000 L1574.000,61.000 ZM1595.999,41.000 L1595.999,61.000 L1595.999,90.999 L1595.999,110.998 L1591.000,110.998 L1586.000,110.998 L1586.000,90.999 L1586.000,61.000 L1586.000,41.000 L1591.000,41.000 L1595.999,41.000 ZM1615.999,40.999 L1605.999,40.999 L1605.999,10.999 L1615.999,10.999 L1615.999,40.999 ZM1611.999,61.000 L1611.999,90.999 L1611.999,110.998 L1610.000,110.998 L1610.000,90.999 L1610.000,61.000 L1610.000,41.000 L1611.999,41.000 L1611.999,61.000 ZM1640.999,61.000 L1640.999,90.999 L1640.999,110.998 L1620.999,110.998 L1620.999,90.999 L1620.999,61.000 L1620.999,41.000 L1640.999,41.000 L1640.999,61.000 ZM1655.999,40.999 L1646.000,40.999 L1646.000,10.999 L1655.999,10.999 L1655.999,40.999 ZM1656.000,41.000 L1656.000,61.000 L1656.000,90.999 L1656.000,110.998 L1651.000,110.998 L1646.000,110.998 L1646.000,90.999 L1646.000,61.000 L1646.000,41.000 L1651.000,41.000 L1656.000,41.000 ZM1680.999,61.000 L1701.000,61.000 L1701.000,41.000 L1710.999,41.000 L1720.999,41.000 L1720.999,61.000 L1720.999,90.999 L1720.999,110.998 L1710.999,110.998 L1701.000,110.998 L1701.000,101.000 L1691.000,101.000 L1680.999,101.000 L1680.999,110.998 L1660.999,110.998 L1660.999,90.999 L1660.999,61.000 L1660.999,41.000 L1680.999,41.000 L1680.999,61.000 ZM1733.000,40.999 L1728.999,40.999 L1728.999,10.999 L1733.000,10.999 L1733.000,40.999 ZM1731.999,61.000 L1731.999,90.999 L1731.999,110.998 L1729.999,110.998 L1729.999,90.999 L1729.999,61.000 L1729.999,41.000 L1731.999,41.000 L1731.999,61.000 ZM1753.000,40.999 L1749.000,40.999 L1749.000,10.999 L1753.000,10.999 L1753.000,40.999 ZM1786.000,101.000 L1771.000,101.000 L1756.000,101.000 L1756.000,61.000 L1786.000,61.000 L1786.000,101.000 ZM1794.000,40.999 L1788.000,40.999 L1788.000,10.999 L1794.000,10.999 L1794.000,40.999 ZM1794.000,61.000 L1794.000,110.998 L1788.000,110.998 L1788.000,61.000 L1788.000,41.000 L1794.000,41.000 L1794.000,61.000 ZM1815.999,40.999 L1806.000,40.999 L1806.000,10.999 L1815.999,10.999 L1815.999,40.999 ZM1816.000,110.998 L1806.000,110.998 L1806.000,41.000 L1816.000,41.000 L1816.000,110.998 ZM1833.000,40.999 L1828.999,40.999 L1828.999,10.999 L1833.000,10.999 L1833.000,40.999 ZM1831.999,90.999 L1831.999,110.998 L1831.000,110.998 L1829.999,110.998 L1829.999,41.000 L1831.999,41.000 L1831.999,90.999 ZM1854.000,40.999 L1848.000,40.999 L1848.000,10.999 L1854.000,10.999 L1854.000,40.999 ZM1854.000,90.999 L1854.000,110.998 L1848.000,110.998 L1848.000,90.999 L1848.000,41.000 L1854.000,41.000 L1854.000,90.999 ZM1886.000,61.000 L1886.000,41.000 L1895.999,41.000 L1895.999,110.998 L1891.000,110.998 L1886.000,110.998 L1886.000,101.000 L1871.000,101.000 L1860.999,101.000 L1856.000,101.000 L1856.000,90.999 L1856.000,61.000 L1860.999,61.000 L1886.000,61.000 ZM1886.000,10.999 L1896.000,10.999 L1896.000,40.999 L1886.000,40.999 L1886.000,10.999 ZM1912.999,40.999 L1908.999,40.999 L1908.999,10.999 L1912.999,10.999 L1912.999,40.999 ZM1940.999,61.000 L1940.999,41.000 L1951.000,41.000 L1960.999,41.000 L1960.999,61.000 L1960.999,90.999 L1960.999,110.998 L1951.000,110.998 L1940.999,110.998 L1940.999,101.000 L1931.000,101.000 L1915.999,101.000 L1915.999,61.000 L1920.999,61.000 L1940.999,61.000 ZM1972.999,40.999 L1968.999,40.999 L1968.999,10.999 L1972.999,10.999 L1972.999,40.999 ZM1971.999,61.000 L1971.999,90.999 L1971.999,110.998 L1969.999,110.998 L1969.999,90.999 L1969.999,61.000 L1969.999,41.000 L1971.999,41.000 L1971.999,61.000 ZM1993.000,40.999 L1989.000,40.999 L1989.000,10.999 L1993.000,10.999 L1993.000,40.999 ZM2015.999,40.999 L2006.000,40.999 L2006.000,10.999 L2015.999,10.999 L2015.999,40.999 ZM2011.999,110.998 L2010.999,110.998 L2010.000,110.998 L2010.000,90.999 L2010.000,41.000 L2011.999,41.000 L2011.999,110.998 ZM2032.999,40.999 L2028.999,40.999 L2028.999,10.999 L2032.999,10.999 L2032.999,40.999 ZM2031.999,110.998 L2029.999,110.998 L2029.999,41.000 L2031.999,41.000 L2031.999,110.998 ZM2053.000,40.999 L2049.000,40.999 L2049.000,10.999 L2053.000,10.999 L2053.000,40.999 ZM2053.000,110.998 L2049.000,110.998 L2049.000,41.000 L2053.000,41.000 L2053.000,110.998 ZM2075.999,40.999 L2065.999,40.999 L2065.999,10.999 L2075.999,10.999 L2075.999,40.999 ZM2071.999,41.000 L2071.999,61.000 L2071.999,90.999 L2071.999,110.998 L2069.999,110.998 L2069.999,41.000 L2071.000,41.000 L2071.999,41.000 ZM2096.000,40.999 L2085.999,40.999 L2085.999,10.999 L2096.000,10.999 L2096.000,40.999 ZM2092.000,61.000 L2092.000,90.999 L2092.000,110.998 L2089.999,110.998 L2089.999,90.999 L2089.999,61.000 L2089.999,41.000 L2092.000,41.000 L2092.000,61.000 ZM2112.999,40.999 L2109.000,40.999 L2109.000,10.999 L2112.999,10.999 L2112.999,40.999 ZM2112.000,61.000 L2112.000,90.999 L2112.000,110.998 L2110.000,110.998 L2110.000,90.999 L2110.000,61.000 L2110.000,41.000 L2112.000,41.000 L2112.000,61.000 ZM2134.000,41.000 L2134.000,61.000 L2134.000,90.999 L2134.000,110.998 L2131.000,110.998 L2128.000,110.998 L2128.000,90.999 L2128.000,61.000 L2128.000,41.000 L2131.000,41.000 L2134.000,41.000 ZM2156.000,61.000 L2156.000,90.999 L2156.000,110.998 L2146.000,110.998 L2146.000,90.999 L2146.000,61.000 L2146.000,41.000 L2156.000,41.000 L2156.000,61.000 ZM2174.000,61.000 L2174.000,90.999 L2174.000,110.998 L2168.000,110.998 L2168.000,90.999 L2168.000,61.000 L2168.000,41.000 L2174.000,41.000 L2174.000,61.000 ZM2194.000,40.999 L2187.999,40.999 L2187.999,10.999 L2194.000,10.999 L2194.000,40.999 ZM2194.000,110.998 L2187.999,110.998 L2187.999,90.999 L2187.999,61.000 L2187.999,41.000 L2194.000,41.000 L2194.000,110.998 ZM2213.999,110.998 L2207.999,110.998 L2207.999,41.000 L2213.999,41.000 L2213.999,110.998 ZM2208.000,10.999 L2214.000,10.999 L2214.000,40.999 L2208.000,40.999 L2208.000,10.999 ZM2235.999,40.999 L2225.999,40.999 L2225.999,10.999 L2235.999,10.999 L2235.999,40.999 ZM2235.999,61.000 L2235.999,110.998 L2225.999,110.998 L2225.999,61.000 L2225.999,41.000 L2235.999,41.000 L2235.999,61.000 ZM2256.000,40.999 L2246.000,40.999 L2246.000,10.999 L2256.000,10.999 L2256.000,40.999 ZM2256.000,41.000 L2256.000,61.000 L2256.000,90.999 L2256.000,110.998 L2246.000,110.998 L2246.000,61.000 L2246.000,41.000 L2250.999,41.000 L2256.000,41.000 ZM2272.999,40.999 L2268.999,40.999 L2268.999,10.999 L2272.999,10.999 L2272.999,40.999 ZM2272.999,61.000 L2272.999,90.999 L2272.999,110.998 L2268.999,110.998 L2268.999,90.999 L2268.999,61.000 L2268.999,41.000 L2272.999,41.000 L2272.999,61.000 ZM2293.000,40.999 L2288.999,40.999 L2288.999,10.999 L2293.000,10.999 L2293.000,40.999 ZM2292.000,61.000 L2292.000,90.999 L2292.000,110.998 L2289.999,110.998 L2289.999,90.999 L2289.999,61.000 L2289.999,41.000 L2292.000,41.000 L2292.000,61.000 ZM2320.999,41.000 L2320.999,61.000 L2340.999,61.000 L2346.000,61.000 L2346.000,90.999 L2346.000,101.000 L2340.999,101.000 L2331.000,101.000 L2320.999,101.000 L2320.999,110.998 L2310.999,110.998 L2301.000,110.998 L2301.000,90.999 L2301.000,61.000 L2301.000,41.000 L2310.999,41.000 L2320.999,41.000 ZM2353.999,61.000 L2353.999,90.999 L2353.999,110.998 L2347.999,110.998 L2347.999,90.999 L2347.999,61.000 L2347.999,41.000 L2353.999,41.000 L2353.999,61.000 ZM2348.000,10.999 L2354.000,10.999 L2354.000,40.999 L2348.000,40.999 L2348.000,10.999 ZM2375.999,110.998 L2371.000,110.998 L2366.000,110.998 L2366.000,90.999 L2366.000,61.000 L2366.000,41.000 L2375.999,41.000 L2375.999,110.998 ZM2393.999,40.999 L2387.999,40.999 L2387.999,10.999 L2393.999,10.999 L2393.999,40.999 ZM2393.999,110.998 L2387.999,110.998 L2387.999,41.000 L2393.999,41.000 L2393.999,110.998 ZM2440.999,41.000 L2440.999,90.999 L2440.999,110.998 L2430.999,110.998 L2420.999,110.998 L2401.000,110.998 L2401.000,90.999 L2401.000,61.000 L2401.000,41.000 L2420.999,41.000 L2440.999,41.000 ZM2456.000,40.999 L2445.999,40.999 L2445.999,10.999 L2456.000,10.999 L2456.000,40.999 ZM2452.000,90.999 L2452.000,110.998 L2449.999,110.998 L2449.999,90.999 L2449.999,41.000 L2452.000,41.000 L2452.000,90.999 ZM2475.999,40.999 L2466.000,40.999 L2466.000,10.999 L2475.999,10.999 L2475.999,40.999 ZM2471.999,61.000 L2471.999,90.999 L2471.999,110.998 L2469.999,110.998 L2469.999,90.999 L2469.999,61.000 L2469.999,41.000 L2471.999,41.000 L2471.999,61.000 ZM2501.000,41.000 L2501.000,61.000 L2501.000,90.999 L2501.000,110.998 L2490.999,110.998 L2480.999,110.998 L2480.999,90.999 L2480.999,61.000 L2480.999,41.000 L2490.999,41.000 L2501.000,41.000 ZM2516.000,40.999 L2506.000,40.999 L2506.000,10.999 L2516.000,10.999 L2516.000,40.999 ZM2512.000,61.000 L2512.000,90.999 L2512.000,110.998 L2510.000,110.998 L2510.000,90.999 L2510.000,61.000 L2510.000,41.000 L2512.000,41.000 L2512.000,61.000 ZM2540.999,61.000 L2540.999,90.999 L2540.999,110.998 L2520.999,110.998 L2520.999,90.999 L2520.999,61.000 L2520.999,41.000 L2540.999,41.000 L2540.999,61.000 ZM2556.000,90.999 L2556.000,110.998 L2550.999,110.998 L2546.000,110.998 L2546.000,90.999 L2546.000,61.000 L2546.000,41.000 L2556.000,41.000 L2556.000,90.999 ZM2572.999,40.999 L2569.000,40.999 L2569.000,10.999 L2572.999,10.999 L2572.999,40.999 ZM2571.999,90.999 L2571.999,110.998 L2570.000,110.998 L2570.000,90.999 L2570.000,41.000 L2571.999,41.000 L2571.999,90.999 ZM2592.999,40.999 L2588.999,40.999 L2588.999,10.999 L2592.999,10.999 L2592.999,40.999 ZM2625.999,61.000 L2625.999,90.999 L2625.999,101.000 L2610.999,101.000 L2595.999,101.000 L2595.999,90.999 L2595.999,61.000 L2610.999,61.000 L2625.999,61.000 ZM2632.999,40.999 L2628.999,40.999 L2628.999,10.999 L2632.999,10.999 L2632.999,40.999 ZM2661.000,61.000 L2661.000,41.000 L2671.000,41.000 L2680.999,41.000 L2680.999,61.000 L2701.000,61.000 L2701.000,41.000 L2721.000,41.000 L2721.000,61.000 L2721.000,90.999 L2721.000,110.998 L2701.000,110.998 L2701.000,101.000 L2690.999,101.000 L2680.999,101.000 L2680.999,110.998 L2671.000,110.998 L2661.000,110.998 L2661.000,101.000 L2650.999,101.000 L2640.999,101.000 L2635.999,101.000 L2635.999,90.999 L2635.999,61.000 L2640.999,61.000 L2661.000,61.000 ZM2735.999,41.000 L2735.999,61.000 L2735.999,110.998 L2730.999,110.998 L2725.999,110.998 L2725.999,90.999 L2725.999,61.000 L2725.999,41.000 L2730.999,41.000 L2735.999,41.000 ZM2752.999,40.999 L2748.999,40.999 L2748.999,10.999 L2752.999,10.999 L2752.999,40.999 ZM2786.000,101.000 L2771.000,101.000 L2755.999,101.000 L2755.999,61.000 L2786.000,61.000 L2786.000,101.000 ZM2793.999,41.000 L2793.999,61.000 L2793.999,90.999 L2793.999,110.998 L2787.999,110.998 L2787.999,61.000 L2787.999,41.000 L2790.999,41.000 L2793.999,41.000 ZM2813.000,40.999 L2809.000,40.999 L2809.000,10.999 L2813.000,10.999 L2813.000,40.999 ZM2812.000,61.000 L2812.000,90.999 L2812.000,110.998 L2810.000,110.998 L2810.000,90.999 L2810.000,61.000 L2810.000,41.000 L2812.000,41.000 L2812.000,61.000 ZM2846.000,61.000 L2846.000,90.999 L2846.000,101.000 L2830.999,101.000 L2816.000,101.000 L2816.000,90.999 L2816.000,61.000 L2821.000,61.000 L2846.000,61.000 ZM2853.999,40.999 L2847.999,40.999 L2847.999,10.999 L2853.999,10.999 L2853.999,40.999 ZM2853.999,41.000 L2853.999,61.000 L2853.999,90.999 L2853.999,110.998 L2847.999,110.998 L2847.999,90.999 L2847.999,61.000 L2847.999,41.000 L2850.999,41.000 L2853.999,41.000 ZM2874.000,61.000 L2874.000,90.999 L2874.000,110.998 L2868.000,110.998 L2868.000,90.999 L2868.000,61.000 L2868.000,41.000 L2874.000,41.000 L2874.000,61.000 ZM2892.999,40.999 L2888.999,40.999 L2888.999,10.999 L2892.999,10.999 L2892.999,40.999 ZM2892.000,61.000 L2892.000,110.998 L2889.999,110.998 L2889.999,61.000 L2889.999,41.000 L2892.000,41.000 L2892.000,61.000 ZM2913.999,41.000 L2913.999,90.999 L2913.999,110.998 L2910.999,110.998 L2907.999,110.998 L2907.999,61.000 L2907.999,41.000 L2910.999,41.000 L2913.999,41.000 ZM2908.000,10.999 L2914.000,10.999 L2914.000,40.999 L2908.000,40.999 L2908.000,10.999 ZM2932.999,40.999 L2928.999,40.999 L2928.999,10.999 L2932.999,10.999 L2932.999,40.999 ZM2955.999,40.999 L2945.999,40.999 L2945.999,10.999 L2955.999,10.999 L2955.999,40.999 ZM2952.000,61.000 L2952.000,90.999 L2952.000,110.998 L2949.999,110.998 L2949.999,90.999 L2949.999,61.000 L2949.999,41.000 L2952.000,41.000 L2952.000,61.000 ZM2973.000,41.000 L2973.000,61.000 L2973.000,90.999 L2973.000,110.998 L2968.999,110.998 L2968.999,90.999 L2968.999,61.000 L2968.999,41.000 L2971.000,41.000 L2973.000,41.000 ZM2995.999,40.999 L2985.999,40.999 L2985.999,10.999 L2995.999,10.999 L2995.999,40.999 ZM2995.999,61.000 L2995.999,90.999 L2995.999,110.998 L2986.000,110.998 L2986.000,90.999 L2986.000,61.000 L2986.000,41.000 L2995.999,41.000 L2995.999,61.000 ZM3013.000,40.999 L3009.000,40.999 L3009.000,10.999 L3013.000,10.999 L3013.000,40.999 ZM3013.000,61.000 L3013.000,90.999 L3013.000,110.998 L3009.000,110.998 L3009.000,90.999 L3009.000,61.000 L3009.000,41.000 L3013.000,41.000 L3013.000,61.000 ZM3032.999,40.999 L3029.000,40.999 L3029.000,10.999 L3032.999,10.999 L3032.999,40.999 ZM3031.999,41.000 L3031.999,61.000 L3031.999,90.999 L3031.999,110.998 L3030.999,110.998 L3030.000,110.998 L3030.000,90.999 L3030.000,61.000 L3030.000,41.000 L3030.999,41.000 L3031.999,41.000 ZM3061.000,61.000 L3061.000,90.999 L3061.000,110.998 L3040.999,110.998 L3040.999,90.999 L3040.999,61.000 L3040.999,41.000 L3061.000,41.000 L3061.000,61.000 ZM3074.000,40.999 L3068.000,40.999 L3068.000,10.999 L3074.000,10.999 L3074.000,40.999 ZM3074.000,61.000 L3074.000,90.999 L3074.000,110.998 L3068.000,110.998 L3068.000,90.999 L3068.000,61.000 L3068.000,41.000 L3074.000,41.000 L3074.000,61.000 ZM3105.999,61.000 L3105.999,41.000 L3116.000,41.000 L3116.000,61.000 L3116.000,110.998 L3105.999,110.998 L3105.999,101.000 L3090.999,101.000 L3076.000,101.000 L3076.000,90.999 L3076.000,61.000 L3090.999,61.000 L3105.999,61.000 ZM3132.999,61.000 L3132.999,90.999 L3132.999,110.998 L3128.999,110.998 L3128.999,90.999 L3128.999,61.000 L3128.999,41.000 L3132.999,41.000 L3132.999,61.000 ZM3165.999,41.000 L3176.000,41.000 L3176.000,61.000 L3176.000,110.998 L3165.999,110.998 L3165.999,101.000 L3150.999,101.000 L3135.999,101.000 L3135.999,90.999 L3135.999,61.000 L3165.999,61.000 L3165.999,41.000 ZM3195.999,40.999 L3185.999,40.999 L3185.999,10.999 L3195.999,10.999 L3195.999,40.999 ZM3195.999,110.998 L3186.000,110.998 L3186.000,41.000 L3195.999,41.000 L3195.999,110.998 ZM3216.000,41.000 L3216.000,61.000 L3240.999,61.000 L3240.999,41.000 L3261.000,41.000 L3261.000,61.000 L3261.000,90.999 L3261.000,110.998 L3240.999,110.998 L3240.999,101.000 L3231.000,101.000 L3216.000,101.000 L3216.000,110.998 L3210.999,110.998 L3205.999,110.998 L3205.999,41.000 L3210.999,41.000 L3216.000,41.000 ZM3273.000,40.999 L3269.000,40.999 L3269.000,10.999 L3273.000,10.999 L3273.000,40.999 ZM3301.000,61.000 L3301.000,90.999 L3301.000,110.998 L3281.000,110.998 L3281.000,90.999 L3281.000,61.000 L3281.000,41.000 L3301.000,41.000 L3301.000,61.000 ZM3312.999,40.999 L3308.999,40.999 L3308.999,10.999 L3312.999,10.999 L3312.999,40.999 ZM3311.999,61.000 L3311.999,90.999 L3311.999,110.998 L3310.000,110.998 L3310.000,90.999 L3310.000,61.000 L3310.000,41.000 L3311.999,41.000 L3311.999,61.000 ZM3334.000,40.999 L3328.000,40.999 L3328.000,10.999 L3334.000,10.999 L3334.000,40.999 ZM3334.000,41.000 L3334.000,90.999 L3334.000,110.998 L3331.000,110.998 L3328.000,110.998 L3328.000,90.999 L3328.000,61.000 L3328.000,41.000 L3331.000,41.000 L3334.000,41.000 ZM3352.999,40.999 L3348.999,40.999 L3348.999,10.999 L3352.999,10.999 L3352.999,40.999 ZM3376.000,40.999 L3365.999,40.999 L3365.999,10.999 L3376.000,10.999 L3376.000,40.999 ZM3371.999,61.000 L3371.999,110.998 L3370.000,110.998 L3370.000,61.000 L3370.000,41.000 L3371.999,41.000 L3371.999,61.000 ZM3392.999,40.999 L3388.999,40.999 L3388.999,10.999 L3392.999,10.999 L3392.999,40.999 ZM3392.999,41.000 L3392.999,61.000 L3392.999,90.999 L3392.999,110.998 L3390.999,110.998 L3389.000,110.998 L3389.000,61.000 L3389.000,41.000 L3390.999,41.000 L3392.999,41.000 ZM3226.000,10.999 L3235.999,10.999 L3235.999,40.999 L3226.000,40.999 L3226.000,10.999 ZM3207.999,10.999 L3214.000,10.999 L3214.000,40.999 L3207.999,40.999 L3207.999,10.999 ZM3168.000,10.999 L3174.000,10.999 L3174.000,40.999 L3168.000,40.999 L3168.000,10.999 ZM3145.999,10.999 L3155.999,10.999 L3155.999,40.999 L3145.999,40.999 L3145.999,10.999 ZM3129.000,10.999 L3132.999,10.999 L3132.999,40.999 L3129.000,40.999 L3129.000,10.999 ZM3105.999,10.999 L3116.000,10.999 L3116.000,40.999 L3105.999,40.999 L3105.999,10.999 ZM3085.999,10.999 L3095.999,10.999 L3095.999,40.999 L3085.999,40.999 L3085.999,10.999 ZM2969.000,10.999 L2973.000,10.999 L2973.000,40.999 L2969.000,40.999 L2969.000,10.999 ZM2869.000,10.999 L2873.000,10.999 L2873.000,40.999 L2869.000,40.999 L2869.000,10.999 ZM2826.000,10.999 L2835.999,10.999 L2835.999,40.999 L2826.000,40.999 L2826.000,10.999 ZM2788.999,10.999 L2792.999,10.999 L2792.999,40.999 L2788.999,40.999 L2788.999,10.999 ZM2766.000,10.999 L2775.999,10.999 L2775.999,40.999 L2766.000,40.999 L2766.000,10.999 ZM2725.999,10.999 L2735.999,10.999 L2735.999,40.999 L2725.999,40.999 L2725.999,10.999 ZM2685.999,10.999 L2695.999,10.999 L2695.999,40.999 L2685.999,40.999 L2685.999,10.999 ZM2645.999,10.999 L2656.000,10.999 L2656.000,40.999 L2645.999,40.999 L2645.999,10.999 ZM2606.000,10.999 L2616.000,10.999 L2616.000,40.999 L2606.000,40.999 L2606.000,10.999 ZM2547.999,10.999 L2554.000,10.999 L2554.000,40.999 L2547.999,40.999 L2547.999,10.999 ZM2367.999,10.999 L2373.999,10.999 L2373.999,40.999 L2367.999,40.999 L2367.999,10.999 ZM2325.999,10.999 L2335.999,10.999 L2335.999,40.999 L2325.999,40.999 L2325.999,10.999 ZM2168.999,10.999 L2172.999,10.999 L2172.999,40.999 L2168.999,40.999 L2168.999,10.999 ZM2148.000,10.999 L2154.000,10.999 L2154.000,40.999 L2148.000,40.999 L2148.000,10.999 ZM2128.999,10.999 L2132.999,10.999 L2132.999,40.999 L2128.999,40.999 L2128.999,10.999 ZM1925.999,10.999 L1936.000,10.999 L1936.000,40.999 L1925.999,40.999 L1925.999,10.999 ZM1865.999,10.999 L1875.999,10.999 L1875.999,40.999 L1865.999,40.999 L1865.999,10.999 ZM1765.999,10.999 L1775.999,10.999 L1775.999,40.999 L1765.999,40.999 L1765.999,10.999 ZM1686.000,10.999 L1696.000,10.999 L1696.000,40.999 L1686.000,40.999 L1686.000,10.999 ZM1588.000,10.999 L1594.000,10.999 L1594.000,40.999 L1588.000,40.999 L1588.000,10.999 ZM1548.000,10.999 L1553.999,10.999 L1553.999,40.999 L1548.000,40.999 L1548.000,10.999 ZM1508.999,10.999 L1512.999,10.999 L1512.999,40.999 L1508.999,40.999 L1508.999,10.999 ZM1426.000,10.999 L1436.000,10.999 L1436.000,40.999 L1426.000,40.999 L1426.000,10.999 ZM1407.999,10.999 L1413.999,10.999 L1413.999,40.999 L1407.999,40.999 L1407.999,10.999 ZM1326.000,10.999 L1336.000,10.999 L1336.000,40.999 L1326.000,40.999 L1326.000,10.999 ZM1226.000,10.999 L1236.000,10.999 L1236.000,40.999 L1226.000,40.999 L1226.000,10.999 ZM1189.000,10.999 L1193.000,10.999 L1193.000,40.999 L1189.000,40.999 L1189.000,10.999 ZM1169.000,10.999 L1173.000,10.999 L1173.000,40.999 L1169.000,40.999 L1169.000,10.999 ZM1129.000,10.999 L1133.000,10.999 L1133.000,40.999 L1129.000,40.999 L1129.000,10.999 ZM1045.999,10.999 L1055.999,10.999 L1055.999,40.999 L1045.999,40.999 L1045.999,10.999 ZM1026.000,10.999 L1036.000,10.999 L1036.000,40.999 L1026.000,40.999 L1026.000,10.999 ZM966.000,10.999 L976.000,10.999 L976.000,40.999 L966.000,40.999 L966.000,10.999 ZM945.999,10.999 L955.999,10.999 L955.999,40.999 L945.999,40.999 L945.999,10.999 ZM866.000,10.999 L876.000,10.999 L876.000,40.999 L866.000,40.999 L866.000,10.999 ZM847.999,10.999 L853.999,10.999 L853.999,40.999 L847.999,40.999 L847.999,10.999 ZM666.000,10.999 L676.000,10.999 L676.000,40.999 L666.000,40.999 L666.000,10.999 ZM609.000,10.999 L613.000,10.999 L613.000,40.999 L609.000,40.999 L609.000,10.999 ZM485.999,10.999 L495.999,10.999 L495.999,40.999 L485.999,40.999 L485.999,10.999 ZM448.999,10.999 L453.000,10.999 L453.000,40.999 L448.999,40.999 L448.999,10.999 ZM429.000,10.999 L432.999,10.999 L432.999,40.999 L429.000,40.999 L429.000,10.999 ZM387.999,10.999 L393.999,10.999 L393.999,40.999 L387.999,40.999 L387.999,10.999 ZM345.999,10.999 L356.000,10.999 L356.000,40.999 L345.999,40.999 L345.999,10.999 ZM225.999,10.999 L235.999,10.999 L235.999,40.999 L225.999,40.999 L225.999,10.999 ZM208.000,10.999 L214.000,10.999 L214.000,40.999 L208.000,40.999 L208.000,10.999 ZM87.999,10.999 L94.000,10.999 L94.000,40.999 L87.999,40.999 L87.999,10.999 ZM48.000,10.999 L54.000,10.999 L54.000,40.999 L48.000,40.999 L48.000,10.999 Z"/>
</svg>