<svg 
 xmlns="http://www.w3.org/2000/svg"
 xmlns:xlink="http://www.w3.org/1999/xlink"
 width="373px" height="52px">
<path fill-rule="evenodd"  fill="rgb(255, 255, 255)"
 d="M343.000,51.474 L343.000,45.474 L373.000,45.474 L373.000,51.474 L343.000,51.474 ZM343.000,27.400 L373.000,27.400 L373.000,33.400 L343.000,33.400 L343.000,27.400 ZM343.000,9.326 L373.000,9.326 L373.000,15.326 L343.000,15.326 L343.000,9.326 ZM343.000,0.289 L373.000,0.289 L373.000,6.289 L343.000,6.289 L343.000,0.289 ZM343.000,24.363 L313.000,24.363 L313.000,18.363 L343.000,18.363 L343.000,24.363 ZM283.000,9.326 L313.000,9.326 L313.000,15.326 L283.000,15.326 L283.000,9.326 ZM253.000,0.289 L283.000,0.289 L283.000,6.289 L253.000,6.289 L253.000,0.289 ZM237.884,16.587 L237.884,19.526 C237.884,19.844 237.734,20.002 237.436,20.002 L235.784,20.002 C235.466,20.002 235.307,19.844 235.307,19.526 L235.307,16.587 L227.913,16.587 C227.372,16.587 227.101,16.316 227.101,15.775 L227.101,14.907 C227.101,14.497 227.185,14.132 227.353,13.815 L233.599,2.700 C233.748,2.420 233.888,2.233 234.019,2.140 C234.149,2.047 234.345,2.000 234.607,2.000 L237.072,2.000 C237.613,2.000 237.884,2.270 237.884,2.812 L237.884,14.179 L239.929,14.179 C240.246,14.179 240.405,14.338 240.405,14.655 L240.405,16.055 C240.405,16.409 240.246,16.587 239.929,16.587 L237.884,16.587 ZM235.307,4.268 L229.790,14.179 L235.307,14.179 L235.307,4.268 ZM228.726,31.998 C229.024,31.998 229.230,32.100 229.342,32.306 L236.120,44.484 L236.232,44.484 L236.232,32.474 C236.232,32.156 236.390,31.998 236.708,31.998 L238.445,31.998 C238.762,31.998 238.920,32.156 238.920,32.474 L238.920,49.524 C238.920,49.842 238.762,50.000 238.445,50.000 L236.932,50.000 C236.633,50.000 236.390,49.851 236.204,49.552 L229.482,37.513 L229.370,37.513 L229.370,49.524 C229.370,49.842 229.211,50.000 228.894,50.000 L227.157,50.000 C226.839,50.000 226.681,49.842 226.681,49.524 L226.681,32.474 C226.681,32.156 226.839,31.998 227.157,31.998 L228.726,31.998 ZM222.161,16.587 L222.161,19.526 C222.161,19.844 222.012,20.002 221.713,20.002 L220.061,20.002 C219.743,20.002 219.585,19.844 219.585,19.526 L219.585,16.587 L212.190,16.587 C211.649,16.587 211.378,16.316 211.378,15.775 L211.378,14.907 C211.378,14.497 211.462,14.132 211.630,13.815 L217.876,2.700 C218.025,2.420 218.165,2.233 218.296,2.140 C218.427,2.047 218.622,2.000 218.884,2.000 L221.349,2.000 C221.890,2.000 222.161,2.270 222.161,2.812 L222.161,14.179 L224.206,14.179 C224.523,14.179 224.682,14.338 224.682,14.655 L224.682,16.055 C224.682,16.409 224.523,16.587 224.206,16.587 L222.161,16.587 ZM219.585,4.268 L214.067,14.179 L219.585,14.179 L219.585,4.268 ZM215.538,31.998 L218.786,31.998 C220.168,31.998 221.241,32.375 222.007,33.131 C222.773,33.888 223.156,34.956 223.156,36.337 L223.156,45.661 C223.156,47.023 222.773,48.087 222.007,48.852 C221.241,49.618 220.168,50.000 218.786,50.000 L215.538,50.000 C214.155,50.000 213.087,49.618 212.331,48.852 C211.575,48.087 211.197,47.023 211.197,45.661 L211.197,36.337 C211.197,34.956 211.575,33.888 212.331,33.131 C213.087,32.375 214.155,31.998 215.538,31.998 ZM213.913,45.548 C213.913,46.930 214.585,47.620 215.930,47.620 L218.366,47.620 C219.729,47.620 220.411,46.930 220.411,45.548 L220.411,36.449 C220.411,35.068 219.729,34.377 218.366,34.377 L215.930,34.377 C214.585,34.377 213.913,35.068 213.913,36.449 L213.913,45.548 ZM207.009,20.002 C206.841,20.002 206.725,19.970 206.660,19.904 C206.594,19.839 206.542,19.713 206.505,19.526 L205.441,15.887 L199.279,15.887 L198.215,19.526 C198.140,19.844 197.972,20.002 197.711,20.002 L195.694,20.002 C195.433,20.002 195.340,19.844 195.414,19.526 L200.288,2.476 C200.381,2.159 200.605,2.000 200.960,2.000 L203.761,2.000 C204.134,2.000 204.358,2.159 204.433,2.476 L209.306,19.526 C209.381,19.844 209.278,20.002 208.998,20.002 L207.009,20.002 ZM202.416,4.688 L202.305,4.688 L199.839,13.647 L204.909,13.647 L202.416,4.688 ZM179.977,11.855 C179.659,11.855 179.501,11.697 179.501,11.379 L179.501,10.455 C179.501,10.119 179.659,9.951 179.977,9.951 L193.505,9.951 C193.822,9.951 193.981,10.119 193.981,10.455 L193.981,11.379 C193.981,11.697 193.822,11.855 193.505,11.855 L179.977,11.855 ZM180.599,31.998 L183.848,31.998 C185.211,31.998 186.275,32.375 187.041,33.131 C187.806,33.888 188.189,34.956 188.189,36.337 L188.189,37.681 C188.189,38.017 188.021,38.185 187.685,38.185 L185.920,38.185 C185.603,38.185 185.445,38.017 185.445,37.681 L185.445,36.449 C185.445,35.068 184.772,34.377 183.428,34.377 L180.991,34.377 C179.647,34.377 178.975,35.068 178.975,36.449 L178.975,45.548 C178.975,46.930 179.647,47.620 180.991,47.620 L183.428,47.620 C184.772,47.620 185.445,46.930 185.445,45.548 L185.445,44.316 C185.445,43.981 185.603,43.813 185.920,43.813 L187.685,43.813 C188.021,43.813 188.189,43.981 188.189,44.316 L188.189,45.661 C188.189,47.023 187.806,48.087 187.041,48.852 C186.275,49.618 185.211,50.000 183.848,50.000 L180.599,50.000 C179.217,50.000 178.148,49.618 177.392,48.852 C176.636,48.087 176.258,47.023 176.258,45.661 L176.258,36.337 C176.258,34.956 176.636,33.888 177.392,33.131 C178.148,32.375 179.217,31.998 180.599,31.998 ZM172.183,20.002 L169.382,20.002 C168.000,20.002 166.926,19.620 166.161,18.855 C165.395,18.089 165.013,17.026 165.013,15.663 L165.013,6.339 C165.013,4.958 165.395,3.890 166.161,3.134 C166.926,2.378 168.000,2.000 169.382,2.000 L172.183,2.000 C173.545,2.000 174.610,2.378 175.375,3.134 C176.141,3.890 176.524,4.958 176.524,6.339 L176.524,15.663 C176.524,17.026 176.141,18.089 175.375,18.855 C174.610,19.620 173.545,20.002 172.183,20.002 ZM173.807,6.452 C173.807,5.070 173.135,4.380 171.790,4.380 L169.802,4.380 C168.458,4.380 167.785,5.070 167.785,6.452 L167.785,15.551 C167.785,16.932 168.458,17.623 169.802,17.623 L171.790,17.623 C173.135,17.623 173.807,16.932 173.807,15.551 L173.807,6.452 ZM173.149,32.474 L173.149,33.901 C173.149,34.219 172.999,34.377 172.701,34.377 L166.315,34.377 C166.091,34.377 165.979,34.471 165.979,34.657 L165.979,39.389 C165.979,39.576 166.091,39.669 166.315,39.669 L171.721,39.669 C172.057,39.669 172.225,39.828 172.225,40.145 L172.225,41.573 C172.225,41.890 172.057,42.049 171.721,42.049 L166.315,42.049 C166.091,42.049 165.979,42.142 165.979,42.329 L165.979,47.312 C165.979,47.518 166.091,47.620 166.315,47.620 L172.701,47.620 C172.999,47.620 173.149,47.779 173.149,48.096 L173.149,49.524 C173.149,49.842 172.999,50.000 172.701,50.000 L163.738,50.000 C163.421,50.000 163.262,49.842 163.262,49.524 L163.262,32.474 C163.262,32.156 163.421,31.998 163.738,31.998 L172.701,31.998 C172.999,31.998 173.149,32.156 173.149,32.474 ZM161.462,20.002 L151.631,20.002 C151.295,20.002 151.127,19.844 151.127,19.526 L151.127,16.951 C151.127,15.794 151.621,14.823 152.611,14.039 L157.904,9.727 C158.801,9.018 159.249,8.197 159.249,7.263 L159.249,6.339 C159.249,4.996 158.549,4.323 157.148,4.323 L155.776,4.323 C155.066,4.323 154.553,4.483 154.235,4.800 C153.918,5.117 153.759,5.631 153.759,6.339 L153.759,7.376 C153.759,7.711 153.601,7.879 153.283,7.879 L151.491,7.879 C151.173,7.879 151.015,7.711 151.015,7.376 L151.015,6.283 C151.015,4.921 151.397,3.866 152.163,3.120 C152.928,2.373 154.002,2.000 155.384,2.000 L157.568,2.000 C158.931,2.000 159.995,2.373 160.761,3.120 C161.526,3.866 161.909,4.921 161.909,6.283 L161.909,7.432 C161.909,8.887 161.340,10.082 160.201,11.015 L154.823,15.411 C154.394,15.765 154.179,16.185 154.179,16.671 L154.179,17.567 L161.462,17.567 C161.798,17.567 161.966,17.725 161.966,18.043 L161.966,19.526 C161.966,19.844 161.798,20.002 161.462,20.002 ZM156.849,44.484 L156.849,32.474 C156.849,32.156 157.007,31.998 157.325,31.998 L159.062,31.998 C159.378,31.998 159.537,32.156 159.537,32.474 L159.537,49.524 C159.537,49.842 159.378,50.000 159.062,50.000 L157.549,50.000 C157.250,50.000 157.007,49.851 156.821,49.552 L150.099,37.513 L149.987,37.513 L149.987,49.524 C149.987,49.842 149.828,50.000 149.511,50.000 L147.774,50.000 C147.456,50.000 147.298,49.842 147.298,49.524 L147.298,32.474 C147.298,32.156 147.456,31.998 147.774,31.998 L149.343,31.998 C149.641,31.998 149.847,32.100 149.959,32.306 L156.737,44.484 L156.849,44.484 ZM143.781,20.002 L141.400,20.002 C140.018,20.002 138.949,19.620 138.193,18.855 C137.437,18.089 137.059,17.026 137.059,15.663 L137.059,14.935 C137.059,14.599 137.217,14.431 137.535,14.431 L139.299,14.431 C139.616,14.431 139.776,14.599 139.776,14.935 L139.776,15.635 C139.776,16.997 140.448,17.678 141.792,17.678 L143.388,17.678 C144.770,17.678 145.461,16.997 145.461,15.635 L145.461,12.807 C145.461,11.967 145.297,11.370 144.971,11.015 C144.644,10.661 144.089,10.483 143.304,10.483 L141.568,10.483 C141.213,10.483 140.919,10.549 140.685,10.679 C140.452,10.810 140.298,10.950 140.223,11.099 C140.018,11.528 139.766,11.743 139.467,11.743 L137.703,11.743 C137.385,11.743 137.227,11.585 137.227,11.267 L137.227,2.476 C137.227,2.159 137.385,2.000 137.703,2.000 L147.197,2.000 C147.534,2.000 147.701,2.159 147.701,2.476 L147.701,4.072 C147.701,4.389 147.534,4.548 147.197,4.548 L139.971,4.548 L139.971,9.643 C140.289,8.729 141.073,8.271 142.324,8.271 L143.976,8.271 C145.321,8.271 146.348,8.622 147.057,9.321 C147.766,10.021 148.121,11.053 148.121,12.415 L148.121,15.663 C148.121,17.026 147.739,18.089 146.973,18.855 C146.207,19.620 145.143,20.002 143.781,20.002 ZM140.884,44.484 L140.884,32.474 C140.884,32.156 141.043,31.998 141.360,31.998 L143.097,31.998 C143.414,31.998 143.573,32.156 143.573,32.474 L143.573,49.524 C143.573,49.842 143.414,50.000 143.097,50.000 L141.585,50.000 C141.286,50.000 141.043,49.851 140.856,49.552 L134.135,37.513 L134.023,37.513 L134.023,49.524 C134.023,49.842 133.864,50.000 133.546,50.000 L131.810,50.000 C131.492,50.000 131.334,49.842 131.334,49.524 L131.334,32.474 C131.334,32.156 131.492,31.998 131.810,31.998 L133.378,31.998 C133.677,31.998 133.882,32.100 133.995,32.306 L140.772,44.484 L140.884,44.484 ZM129.614,20.002 L126.925,20.002 C125.544,20.002 124.470,19.620 123.705,18.855 C122.939,18.089 122.557,17.026 122.557,15.663 L122.557,6.339 C122.557,4.958 122.939,3.890 123.705,3.134 C124.470,2.378 125.544,2.000 126.925,2.000 L132.499,2.000 C132.816,2.000 132.975,2.159 132.975,2.476 L132.975,3.932 C132.975,4.231 132.816,4.380 132.499,4.380 L127.318,4.380 C125.974,4.380 125.301,5.070 125.301,6.452 L125.301,8.859 L129.614,8.859 C130.996,8.859 132.069,9.237 132.835,9.993 C133.601,10.749 133.983,11.818 133.983,13.199 L133.983,15.663 C133.983,17.026 133.601,18.089 132.835,18.855 C132.069,19.620 130.996,20.002 129.614,20.002 ZM131.239,13.311 C131.239,11.930 130.566,11.239 129.222,11.239 L125.301,11.239 L125.301,15.551 C125.301,16.932 125.974,17.623 127.318,17.623 L129.222,17.623 C130.566,17.623 131.239,16.932 131.239,15.551 L131.239,13.311 ZM126.660,33.131 C127.426,33.888 127.808,34.956 127.808,36.337 L127.808,45.661 C127.808,47.023 127.426,48.087 126.660,48.852 C125.894,49.618 124.821,50.000 123.439,50.000 L120.190,50.000 C118.808,50.000 117.739,49.618 116.983,48.852 C116.227,48.087 115.849,47.023 115.849,45.661 L115.849,36.337 C115.849,34.956 116.227,33.888 116.983,33.131 C117.739,32.375 118.808,31.998 120.190,31.998 L123.439,31.998 C124.821,31.998 125.894,32.375 126.660,33.131 ZM120.582,34.377 C119.238,34.377 118.566,35.068 118.566,36.449 L118.566,45.548 C118.566,46.930 119.238,47.620 120.582,47.620 L123.019,47.620 C124.382,47.620 125.064,46.930 125.064,45.548 L125.064,36.449 C125.064,35.068 124.382,34.377 123.019,34.377 L120.582,34.377 ZM104.296,20.002 C103.978,20.002 103.820,19.844 103.820,19.526 L103.820,2.476 C103.820,2.159 103.978,2.000 104.296,2.000 L106.060,2.000 C106.377,2.000 106.536,2.159 106.536,2.476 L106.536,17.287 C106.536,17.473 106.648,17.567 106.873,17.567 L113.370,17.567 C113.687,17.567 113.846,17.734 113.846,18.070 L113.846,19.526 C113.846,19.844 113.687,20.002 113.370,20.002 L104.296,20.002 ZM105.061,31.998 L108.310,31.998 C109.672,31.998 110.736,32.375 111.502,33.131 C112.268,33.888 112.651,34.956 112.651,36.337 L112.651,37.681 C112.651,38.017 112.483,38.185 112.147,38.185 L110.382,38.185 C110.064,38.185 109.906,38.017 109.906,37.681 L109.906,36.449 C109.906,35.068 109.234,34.377 107.889,34.377 L105.453,34.377 C104.108,34.377 103.436,35.068 103.436,36.449 L103.436,45.548 C103.436,46.930 104.108,47.620 105.453,47.620 L107.889,47.620 C109.234,47.620 109.906,46.930 109.906,45.548 L109.906,44.316 C109.906,43.981 110.064,43.813 110.382,43.813 L112.147,43.813 C112.483,43.813 112.651,43.981 112.651,44.316 L112.651,45.661 C112.651,47.023 112.268,48.087 111.502,48.852 C110.736,49.618 109.672,50.000 108.310,50.000 L105.061,50.000 C103.678,50.000 102.610,49.618 101.854,48.852 C101.098,48.087 100.720,47.023 100.720,45.661 L100.720,36.337 C100.720,34.956 101.098,33.888 101.854,33.131 C102.610,32.375 103.678,31.998 105.061,31.998 ZM95.924,20.002 L92.676,20.002 C91.293,20.002 90.225,19.620 89.469,18.855 C88.713,18.089 88.334,17.026 88.334,15.663 L88.334,6.339 C88.334,4.958 88.713,3.890 89.469,3.134 C90.225,2.378 91.293,2.000 92.676,2.000 L95.924,2.000 C97.306,2.000 98.379,2.378 99.145,3.134 C99.911,3.890 100.294,4.958 100.294,6.339 L100.294,15.663 C100.294,17.026 99.911,18.089 99.145,18.855 C98.379,19.620 97.306,20.002 95.924,20.002 ZM97.549,6.452 C97.549,5.070 96.867,4.380 95.504,4.380 L93.068,4.380 C91.723,4.380 91.051,5.070 91.051,6.452 L91.051,15.551 C91.051,16.932 91.723,17.623 93.068,17.623 L95.504,17.623 C96.867,17.623 97.549,16.932 97.549,15.551 L97.549,6.452 ZM80.795,20.002 L77.546,20.002 C76.164,20.002 75.096,19.620 74.339,18.855 C73.583,18.089 73.205,17.026 73.205,15.663 L73.205,6.339 C73.205,4.958 73.583,3.890 74.339,3.134 C75.096,2.378 76.164,2.000 77.546,2.000 L80.795,2.000 C82.158,2.000 83.222,2.378 83.988,3.134 C84.753,3.890 85.136,4.958 85.136,6.339 L85.136,7.684 C85.136,8.019 84.968,8.187 84.632,8.187 L82.868,8.187 C82.550,8.187 82.392,8.019 82.392,7.684 L82.392,6.452 C82.392,5.070 81.719,4.380 80.375,4.380 L77.939,4.380 C76.594,4.380 75.922,5.070 75.922,6.452 L75.922,15.551 C75.922,16.932 76.594,17.623 77.939,17.623 L80.375,17.623 C81.719,17.623 82.392,16.932 82.392,15.551 L82.392,14.319 C82.392,13.983 82.550,13.815 82.868,13.815 L84.632,13.815 C84.968,13.815 85.136,13.983 85.136,14.319 L85.136,15.663 C85.136,17.026 84.753,18.089 83.988,18.855 C83.222,19.620 82.158,20.002 80.795,20.002 ZM75.973,33.160 C76.747,33.934 77.135,35.003 77.135,36.365 L77.135,38.717 C77.135,40.864 76.248,42.216 74.474,42.777 L74.474,42.889 L77.584,49.440 C77.789,49.814 77.668,50.000 77.219,50.000 L75.483,50.000 C75.035,50.000 74.745,49.842 74.614,49.524 L71.618,43.085 L68.789,43.085 C68.565,43.085 68.453,43.178 68.453,43.364 L68.453,49.524 C68.453,49.842 68.294,50.000 67.977,50.000 L66.212,50.000 C65.894,50.000 65.736,49.842 65.736,49.524 L65.736,32.474 C65.736,32.156 65.894,31.998 66.212,31.998 L72.766,31.998 C74.129,31.998 75.198,32.385 75.973,33.160 ZM72.318,34.377 L68.761,34.377 C68.555,34.377 68.453,34.471 68.453,34.657 L68.453,40.565 C68.453,40.752 68.555,40.845 68.761,40.845 L72.318,40.845 C73.700,40.845 74.390,40.163 74.390,38.801 L74.390,36.449 C74.390,35.068 73.700,34.377 72.318,34.377 ZM65.504,20.002 L62.255,20.002 C60.873,20.002 59.804,19.620 59.048,18.855 C58.292,18.089 57.914,17.026 57.914,15.663 L57.914,6.339 C57.914,4.958 58.292,3.890 59.048,3.134 C59.804,2.378 60.873,2.000 62.255,2.000 L65.504,2.000 C66.885,2.000 67.958,2.378 68.724,3.134 C69.490,3.890 69.873,4.958 69.873,6.339 L69.873,15.663 C69.873,17.026 69.490,18.089 68.724,18.855 C67.958,19.620 66.885,20.002 65.504,20.002 ZM67.128,6.452 C67.128,5.070 66.446,4.380 65.084,4.380 L62.647,4.380 C61.302,4.380 60.630,5.070 60.630,6.452 L60.630,15.551 C60.630,16.932 61.302,17.623 62.647,17.623 L65.084,17.623 C66.446,17.623 67.128,16.932 67.128,15.551 L67.128,6.452 ZM59.376,32.474 C59.376,32.156 59.534,31.998 59.852,31.998 L61.616,31.998 C61.952,31.998 62.121,32.147 62.121,32.445 L62.121,45.661 C62.121,47.023 61.733,48.087 60.959,48.852 C60.183,49.618 59.114,50.000 57.752,50.000 L54.643,50.000 C53.280,50.000 52.215,49.618 51.450,48.852 C50.684,48.087 50.301,47.023 50.301,45.661 L50.301,32.474 C50.301,32.156 50.460,31.998 50.778,31.998 L52.542,31.998 C52.860,31.998 53.018,32.156 53.018,32.474 L53.018,45.548 C53.018,46.930 53.690,47.620 55.035,47.620 L57.332,47.620 C58.694,47.620 59.376,46.930 59.376,45.548 L59.376,32.474 ZM54.858,4.380 L51.329,4.380 C51.123,4.380 51.021,4.473 51.021,4.659 L51.021,19.526 C51.021,19.844 50.862,20.002 50.545,20.002 L48.780,20.002 C48.444,20.002 48.276,19.844 48.276,19.526 L48.276,4.659 C48.276,4.473 48.183,4.380 47.996,4.380 L44.467,4.380 C44.131,4.380 43.963,4.221 43.963,3.904 L43.963,2.476 C43.963,2.159 44.131,2.000 44.467,2.000 L54.858,2.000 C55.194,2.000 55.362,2.159 55.362,2.476 L55.362,3.904 C55.362,4.221 55.194,4.380 54.858,4.380 ZM47.036,36.337 L47.036,37.681 C47.036,38.017 46.868,38.185 46.532,38.185 L44.767,38.185 C44.450,38.185 44.291,38.017 44.291,37.681 L44.291,36.449 C44.291,35.068 43.619,34.377 42.275,34.377 L39.838,34.377 C38.493,34.377 37.821,35.068 37.821,36.449 L37.821,45.548 C37.821,46.930 38.493,47.620 39.838,47.620 L42.275,47.620 C43.619,47.620 44.291,46.930 44.291,45.548 L44.291,44.316 C44.291,43.981 44.450,43.813 44.767,43.813 L46.532,43.813 C46.868,43.813 47.036,43.981 47.036,44.316 L47.036,45.661 C47.036,47.023 46.653,48.087 45.888,48.852 C45.122,49.618 44.057,50.000 42.695,50.000 L39.446,50.000 C38.064,50.000 36.995,49.618 36.239,48.852 C35.483,48.087 35.105,47.023 35.105,45.661 L35.105,36.337 C35.105,34.956 35.483,33.888 36.239,33.131 C36.995,32.375 38.064,31.998 39.446,31.998 L42.695,31.998 C44.057,31.998 45.122,32.375 45.888,33.131 C46.653,33.888 47.036,34.956 47.036,36.337 ZM37.057,20.002 L33.808,20.002 C32.426,20.002 31.357,19.620 30.601,18.855 C29.845,18.089 29.467,17.026 29.467,15.663 L29.467,6.339 C29.467,4.958 29.845,3.890 30.601,3.134 C31.357,2.378 32.426,2.000 33.808,2.000 L37.057,2.000 C38.439,2.000 39.512,2.378 40.278,3.134 C41.043,3.890 41.426,4.958 41.426,6.339 L41.426,15.663 C41.426,17.026 41.043,18.089 40.278,18.855 C39.512,19.620 38.439,20.002 37.057,20.002 ZM38.682,6.452 C38.682,5.070 38.000,4.380 36.637,4.380 L34.200,4.380 C32.856,4.380 32.184,5.070 32.184,6.452 L32.184,15.551 C32.184,16.932 32.856,17.623 34.200,17.623 L36.637,17.623 C38.000,17.623 38.682,16.932 38.682,15.551 L38.682,6.452 ZM26.204,20.002 L24.468,20.002 C24.019,20.002 23.730,19.844 23.599,19.526 L20.602,13.087 L17.774,13.087 C17.550,13.087 17.438,13.181 17.438,13.367 L17.438,19.526 C17.438,19.844 17.279,20.002 16.962,20.002 L15.197,20.002 C14.879,20.002 14.721,19.844 14.721,19.526 L14.721,2.476 C14.721,2.159 14.879,2.000 15.197,2.000 L21.751,2.000 C23.114,2.000 24.183,2.388 24.958,3.162 C25.732,3.936 26.120,5.005 26.120,6.367 L26.120,8.719 C26.120,10.866 25.233,12.219 23.459,12.779 L23.459,12.891 L26.568,19.442 C26.774,19.816 26.652,20.002 26.204,20.002 ZM23.375,6.452 C23.375,5.070 22.685,4.380 21.303,4.380 L17.746,4.380 C17.540,4.380 17.438,4.473 17.438,4.659 L17.438,10.567 C17.438,10.754 17.540,10.847 17.746,10.847 L21.303,10.847 C22.685,10.847 23.375,10.166 23.375,8.803 L23.375,6.452 ZM17.295,33.160 C18.070,33.934 18.457,35.003 18.457,36.365 L18.457,36.981 C18.457,37.299 18.299,37.457 17.981,37.457 L16.189,37.457 C15.871,37.457 15.712,37.299 15.712,36.981 L15.712,36.617 C15.712,35.815 15.540,35.241 15.195,34.895 C14.849,34.550 14.275,34.377 13.472,34.377 L11.707,34.377 C10.905,34.377 10.331,34.559 9.985,34.923 C9.640,35.287 9.467,35.908 9.467,36.785 L9.467,37.653 C9.467,38.493 10.074,39.062 11.287,39.361 C11.829,39.492 12.422,39.604 13.066,39.697 C13.710,39.790 14.359,39.931 15.013,40.117 C15.666,40.304 16.263,40.551 16.805,40.859 C17.346,41.167 17.785,41.634 18.121,42.258 C18.457,42.884 18.625,43.645 18.625,44.541 L18.625,45.632 C18.625,46.995 18.238,48.064 17.463,48.838 C16.688,49.613 15.619,50.000 14.256,50.000 L11.119,50.000 C9.756,50.000 8.683,49.613 7.898,48.838 C7.114,48.064 6.722,46.995 6.722,45.632 L6.722,44.904 C6.722,44.587 6.880,44.429 7.198,44.429 L8.991,44.429 C9.308,44.429 9.467,44.587 9.467,44.904 L9.467,45.409 C9.467,46.192 9.640,46.757 9.985,47.102 C10.331,47.448 10.905,47.620 11.707,47.620 L13.640,47.620 C14.443,47.620 15.022,47.438 15.376,47.075 C15.731,46.710 15.909,46.118 15.909,45.296 L15.909,44.652 C15.909,44.055 15.680,43.584 15.223,43.238 C14.765,42.893 14.200,42.670 13.528,42.567 C12.856,42.465 12.118,42.319 11.315,42.132 C10.512,41.947 9.775,41.732 9.103,41.489 C8.431,41.246 7.866,40.789 7.408,40.117 C6.951,39.445 6.722,38.586 6.722,37.541 L6.722,36.365 C6.722,35.003 7.110,33.934 7.885,33.160 C8.659,32.385 9.728,31.998 11.092,31.998 L14.060,31.998 C15.442,31.998 16.520,32.385 17.295,33.160 ZM7.142,13.591 L3.053,13.591 C2.829,13.591 2.717,13.685 2.717,13.871 L2.717,19.526 C2.717,19.844 2.558,20.002 2.241,20.002 L0.476,20.002 C0.158,20.002 0.000,19.844 0.000,19.526 L0.000,2.476 C0.000,2.159 0.158,2.000 0.476,2.000 L7.142,2.000 C8.505,2.000 9.569,2.378 10.335,3.134 C11.100,3.890 11.483,4.958 11.483,6.339 L11.483,9.251 C11.483,10.614 11.100,11.678 10.335,12.443 C9.569,13.209 8.505,13.591 7.142,13.591 ZM8.738,6.452 C8.738,5.070 8.076,4.380 6.750,4.380 L3.025,4.380 C2.819,4.380 2.717,4.473 2.717,4.659 L2.717,10.903 C2.717,11.090 2.819,11.183 3.025,11.183 L6.750,11.183 C8.076,11.183 8.738,10.493 8.738,9.111 L8.738,6.452 ZM31.548,31.998 C31.846,31.998 31.996,32.156 31.996,32.474 L31.996,33.901 C31.996,34.219 31.846,34.377 31.548,34.377 L25.162,34.377 C24.938,34.377 24.826,34.471 24.826,34.657 L24.826,39.389 C24.826,39.576 24.938,39.669 25.162,39.669 L30.568,39.669 C30.904,39.669 31.072,39.828 31.072,40.145 L31.072,41.573 C31.072,41.890 30.904,42.049 30.568,42.049 L25.162,42.049 C24.938,42.049 24.826,42.142 24.826,42.329 L24.826,47.312 C24.826,47.518 24.938,47.620 25.162,47.620 L31.548,47.620 C31.846,47.620 31.996,47.779 31.996,48.096 L31.996,49.524 C31.996,49.842 31.846,50.000 31.548,50.000 L22.585,50.000 C22.267,50.000 22.109,49.842 22.109,49.524 L22.109,32.474 C22.109,32.156 22.267,31.998 22.585,31.998 L31.548,31.998 ZM90.329,31.998 C90.628,31.998 90.778,32.156 90.778,32.474 L90.778,33.901 C90.778,34.219 90.628,34.377 90.329,34.377 L83.944,34.377 C83.720,34.377 83.607,34.471 83.607,34.657 L83.607,39.389 C83.607,39.576 83.720,39.669 83.944,39.669 L89.349,39.669 C89.685,39.669 89.853,39.828 89.853,40.145 L89.853,41.573 C89.853,41.890 89.685,42.049 89.349,42.049 L83.944,42.049 C83.720,42.049 83.607,42.142 83.607,42.329 L83.607,47.312 C83.607,47.518 83.720,47.620 83.944,47.620 L90.329,47.620 C90.628,47.620 90.778,47.779 90.778,48.096 L90.778,49.524 C90.778,49.842 90.628,50.000 90.329,50.000 L81.367,50.000 C81.049,50.000 80.891,49.842 80.891,49.524 L80.891,32.474 C80.891,32.156 81.049,31.998 81.367,31.998 L90.329,31.998 ZM191.079,31.998 L201.470,31.998 C201.806,31.998 201.974,32.156 201.974,32.474 L201.974,33.901 C201.974,34.219 201.806,34.377 201.470,34.377 L197.941,34.377 C197.735,34.377 197.633,34.471 197.633,34.657 L197.633,49.524 C197.633,49.842 197.474,50.000 197.157,50.000 L195.392,50.000 C195.056,50.000 194.888,49.842 194.888,49.524 L194.888,34.657 C194.888,34.471 194.794,34.377 194.608,34.377 L191.079,34.377 C190.743,34.377 190.575,34.219 190.575,33.901 L190.575,32.474 C190.575,32.156 190.743,31.998 191.079,31.998 ZM207.099,31.998 C207.416,31.998 207.575,32.156 207.575,32.474 L207.575,49.524 C207.575,49.842 207.416,50.000 207.099,50.000 L205.335,50.000 C205.017,50.000 204.858,49.842 204.858,49.524 L204.858,32.474 C204.858,32.156 205.017,31.998 205.335,31.998 L207.099,31.998 ZM283.000,24.363 L253.000,24.363 L253.000,18.363 L283.000,18.363 L283.000,24.363 ZM283.000,42.437 L253.000,42.437 L253.000,36.437 L283.000,36.437 L283.000,42.437 ZM283.000,27.400 L313.000,27.400 L313.000,33.400 L283.000,33.400 L283.000,27.400 ZM283.000,51.474 L253.000,51.474 L253.000,45.474 L283.000,45.474 L283.000,51.474 ZM343.000,42.437 L313.000,42.437 L313.000,36.437 L343.000,36.437 L343.000,42.437 Z"/>
</svg>