<svg 
 xmlns="http://www.w3.org/2000/svg"
 xmlns:xlink="http://www.w3.org/1999/xlink"
 width="34px" height="20px">
<path fill-rule="evenodd"  fill="rgb(0, 0, 0)"
 d="M33.821,18.063 C33.779,17.972 33.741,17.896 33.705,17.835 C33.116,16.740 31.988,15.395 30.324,13.801 L30.289,13.765 L30.271,13.747 L30.254,13.728 L30.236,13.728 C29.481,12.986 29.002,12.487 28.802,12.231 C28.436,11.745 28.354,11.252 28.554,10.753 C28.695,10.376 29.227,9.579 30.147,8.362 C30.631,7.717 31.015,7.200 31.298,6.810 C33.340,4.012 34.225,2.223 33.953,1.444 L33.848,1.262 C33.777,1.153 33.594,1.052 33.299,0.961 C33.004,0.870 32.626,0.855 32.166,0.915 L27.068,0.952 C26.985,0.922 26.867,0.924 26.713,0.961 C26.560,0.997 26.483,1.016 26.483,1.016 L26.394,1.062 L26.324,1.116 C26.265,1.153 26.200,1.217 26.129,1.308 C26.059,1.399 26.000,1.506 25.953,1.627 C25.398,3.100 24.766,4.469 24.058,5.734 C23.621,6.489 23.220,7.143 22.854,7.696 C22.488,8.250 22.182,8.658 21.934,8.919 C21.686,9.181 21.462,9.390 21.261,9.549 C21.060,9.707 20.907,9.774 20.801,9.750 C20.695,9.725 20.595,9.701 20.500,9.677 C20.335,9.567 20.202,9.418 20.102,9.229 C20.001,9.041 19.933,8.803 19.898,8.517 C19.863,8.231 19.842,7.985 19.836,7.778 C19.830,7.572 19.833,7.279 19.845,6.902 C19.857,6.525 19.863,6.269 19.863,6.135 C19.863,5.673 19.871,5.171 19.889,4.629 C19.907,4.088 19.921,3.659 19.933,3.343 C19.945,3.026 19.951,2.692 19.951,2.339 C19.951,1.986 19.930,1.709 19.889,1.508 C19.848,1.308 19.786,1.113 19.704,0.924 C19.621,0.736 19.500,0.590 19.341,0.486 C19.181,0.383 18.983,0.301 18.748,0.240 C18.122,0.094 17.326,0.015 16.358,0.002 C14.163,-0.022 12.752,0.124 12.127,0.441 C11.879,0.574 11.655,0.757 11.454,0.988 C11.242,1.256 11.212,1.402 11.365,1.426 C12.073,1.535 12.575,1.797 12.870,2.211 L12.976,2.430 C13.059,2.588 13.142,2.868 13.224,3.270 C13.307,3.671 13.360,4.115 13.383,4.602 C13.442,5.490 13.442,6.251 13.383,6.883 C13.324,7.516 13.269,8.009 13.215,8.362 C13.162,8.715 13.082,9.001 12.976,9.220 C12.870,9.439 12.799,9.573 12.764,9.621 C12.728,9.670 12.699,9.700 12.675,9.712 C12.522,9.773 12.362,9.804 12.197,9.804 C12.032,9.804 11.831,9.719 11.595,9.548 C11.359,9.378 11.115,9.144 10.861,8.846 C10.607,8.547 10.321,8.131 10.002,7.595 C9.684,7.060 9.353,6.427 9.011,5.697 L8.728,5.168 C8.551,4.827 8.309,4.331 8.002,3.680 C7.695,3.029 7.423,2.399 7.188,1.791 C7.093,1.535 6.952,1.341 6.763,1.207 L6.674,1.152 C6.615,1.103 6.521,1.052 6.391,0.997 C6.261,0.942 6.126,0.902 5.984,0.878 L1.133,0.914 C0.638,0.914 0.301,1.030 0.124,1.261 L0.053,1.371 C0.018,1.432 0.000,1.529 0.000,1.663 C0.000,1.797 0.035,1.961 0.106,2.156 C0.814,3.872 1.584,5.526 2.416,7.120 C3.248,8.715 3.971,9.999 4.585,10.971 C5.199,11.945 5.824,12.864 6.461,13.728 C7.099,14.592 7.521,15.145 7.727,15.389 C7.934,15.632 8.096,15.815 8.214,15.936 L8.657,16.374 C8.940,16.666 9.356,17.016 9.905,17.424 C10.454,17.832 11.061,18.233 11.728,18.629 C12.395,19.024 13.171,19.346 14.056,19.596 C14.941,19.846 15.803,19.946 16.641,19.897 L18.677,19.897 C19.090,19.861 19.402,19.727 19.615,19.496 L19.685,19.404 C19.733,19.332 19.777,19.219 19.818,19.067 C19.859,18.915 19.880,18.747 19.880,18.565 C19.868,18.042 19.907,17.570 19.995,17.151 C20.083,16.731 20.184,16.415 20.296,16.201 C20.409,15.989 20.535,15.809 20.677,15.663 C20.818,15.517 20.919,15.429 20.978,15.398 C21.037,15.368 21.084,15.347 21.119,15.335 C21.402,15.237 21.736,15.332 22.120,15.618 C22.503,15.904 22.863,16.257 23.200,16.676 C23.536,17.096 23.940,17.568 24.412,18.091 C24.885,18.614 25.297,19.003 25.651,19.259 L26.005,19.478 C26.242,19.624 26.549,19.758 26.926,19.880 C27.303,20.001 27.634,20.032 27.917,19.971 L32.449,19.898 C32.897,19.898 33.246,19.822 33.494,19.670 C33.741,19.518 33.889,19.350 33.936,19.168 C33.984,18.985 33.986,18.778 33.945,18.547 C33.903,18.316 33.862,18.155 33.821,18.063 Z"/>
</svg>