<svg 
 xmlns="http://www.w3.org/2000/svg"
 xmlns:xlink="http://www.w3.org/1999/xlink"
 width="29px" height="24px">
<path fill-rule="evenodd"  fill="rgb(140, 140, 140)"
 d="M9.120,24.000 C20.064,24.000 26.049,14.767 26.049,6.761 C26.049,6.499 26.044,6.238 26.032,5.978 C27.193,5.123 28.203,4.056 29.000,2.841 C27.934,3.323 26.787,3.648 25.583,3.795 C26.811,3.045 27.755,1.858 28.199,0.443 C27.050,1.137 25.777,1.642 24.422,1.914 C23.336,0.736 21.790,-0.000 20.079,-0.000 C16.792,-0.000 14.128,2.713 14.128,6.058 C14.128,6.534 14.180,6.996 14.282,7.440 C9.337,7.186 4.953,4.775 2.018,1.109 C1.507,2.005 1.213,3.045 1.213,4.155 C1.213,6.257 2.263,8.112 3.860,9.198 C2.884,9.167 1.967,8.894 1.166,8.440 C1.164,8.465 1.164,8.491 1.164,8.517 C1.164,11.452 3.215,13.901 5.938,14.457 C5.438,14.595 4.912,14.670 4.369,14.670 C3.986,14.670 3.613,14.631 3.251,14.561 C4.008,16.968 6.204,18.720 8.809,18.769 C6.772,20.394 4.207,21.363 1.419,21.363 C0.939,21.363 0.466,21.335 0.000,21.279 C2.633,22.997 5.760,24.000 9.120,24.000 "/>
</svg>