<svg 
 xmlns="http://www.w3.org/2000/svg"
 xmlns:xlink="http://www.w3.org/1999/xlink"
 width="369px" height="43px">
<path fill-rule="evenodd"  fill="rgb(255, 255, 255)"
 d="M368.563,31.000 L366.292,31.000 C366.100,31.000 365.966,30.963 365.892,30.888 C365.817,30.814 365.758,30.669 365.716,30.456 L364.500,26.296 L357.461,26.296 L356.246,30.456 C356.160,30.819 355.968,31.000 355.669,31.000 L353.366,31.000 C353.067,31.000 352.960,30.819 353.046,30.456 L358.613,10.968 C358.719,10.605 358.975,10.424 359.381,10.424 L362.580,10.424 C363.007,10.424 363.262,10.605 363.348,10.968 L368.915,30.456 C369.000,30.819 368.883,31.000 368.563,31.000 ZM361.045,13.496 L360.917,13.496 L358.101,23.736 L363.892,23.736 L361.045,13.496 ZM347.076,31.000 C346.713,31.000 346.532,30.819 346.532,30.456 L346.532,13.752 L343.045,15.768 C342.617,15.960 342.405,15.853 342.405,15.448 L342.405,13.560 C342.405,13.219 342.553,12.963 342.853,12.792 L346.180,10.776 C346.585,10.541 346.926,10.424 347.204,10.424 L349.124,10.424 C349.486,10.424 349.668,10.605 349.668,10.968 L349.668,30.456 C349.668,30.819 349.496,31.000 349.155,31.000 L347.076,31.000 ZM329.287,31.000 C328.946,31.000 328.669,30.830 328.455,30.488 L320.777,16.728 L320.649,16.728 L320.649,30.456 C320.649,30.819 320.467,31.000 320.105,31.000 L318.121,31.000 C317.758,31.000 317.577,30.819 317.577,30.456 L317.577,10.968 C317.577,10.605 317.758,10.424 318.121,10.424 L319.913,10.424 C320.254,10.424 320.489,10.541 320.617,10.776 L328.360,24.696 L328.488,24.696 L328.488,10.968 C328.488,10.605 328.669,10.424 329.031,10.424 L331.015,10.424 C331.378,10.424 331.559,10.605 331.559,10.968 L331.559,30.456 C331.559,30.819 331.378,31.000 331.015,31.000 L329.287,31.000 ZM308.607,31.000 L304.895,31.000 C303.317,31.000 302.096,30.563 301.232,29.688 C300.368,28.813 299.936,27.598 299.936,26.040 L299.936,15.384 C299.936,13.806 300.368,12.584 301.232,11.720 C302.096,10.856 303.317,10.424 304.895,10.424 L308.607,10.424 C310.185,10.424 311.411,10.856 312.286,11.720 C313.161,12.584 313.598,13.806 313.598,15.384 L313.598,26.040 C313.598,27.598 313.161,28.813 312.286,29.688 C311.411,30.563 310.185,31.000 308.607,31.000 ZM310.462,15.512 C310.462,13.934 309.684,13.144 308.127,13.144 L305.343,13.144 C303.808,13.144 303.040,13.934 303.040,15.512 L303.040,25.912 C303.040,27.491 303.808,28.280 305.343,28.280 L308.127,28.280 C309.684,28.280 310.462,27.491 310.462,25.912 L310.462,15.512 ZM293.288,31.000 C292.925,31.000 292.744,30.819 292.744,30.456 L292.744,10.968 C292.744,10.605 292.925,10.424 293.288,10.424 L295.304,10.424 C295.666,10.424 295.848,10.605 295.848,10.968 L295.848,30.456 C295.848,30.819 295.666,31.000 295.304,31.000 L293.288,31.000 ZM283.741,31.000 L280.157,31.000 C278.600,31.000 277.374,30.558 276.478,29.672 C275.582,28.787 275.134,27.565 275.134,26.008 L275.134,25.176 C275.134,24.814 275.315,24.632 275.678,24.632 L277.726,24.632 C278.088,24.632 278.270,24.814 278.270,25.176 L278.270,25.752 C278.270,26.648 278.467,27.294 278.862,27.688 C279.256,28.083 279.912,28.280 280.829,28.280 L283.037,28.280 C283.954,28.280 284.615,28.072 285.020,27.656 C285.425,27.240 285.629,26.563 285.629,25.624 L285.629,24.888 C285.629,24.206 285.367,23.667 284.845,23.272 C284.322,22.877 283.677,22.622 282.909,22.504 C282.141,22.387 281.298,22.222 280.381,22.008 C279.464,21.795 278.621,21.549 277.854,21.272 C277.086,20.995 276.440,20.472 275.918,19.704 C275.395,18.936 275.134,17.955 275.134,16.760 L275.134,15.416 C275.134,13.859 275.577,12.638 276.462,11.752 C277.347,10.867 278.568,10.424 280.125,10.424 L283.517,10.424 C285.095,10.424 286.327,10.867 287.212,11.752 C288.097,12.638 288.540,13.859 288.540,15.416 L288.540,16.120 C288.540,16.483 288.359,16.664 287.996,16.664 L285.948,16.664 C285.585,16.664 285.404,16.483 285.404,16.120 L285.404,15.704 C285.404,14.787 285.207,14.131 284.812,13.736 C284.417,13.341 283.762,13.144 282.845,13.144 L280.829,13.144 C279.912,13.144 279.256,13.352 278.862,13.768 C278.467,14.184 278.270,14.894 278.270,15.896 L278.270,16.888 C278.270,17.848 278.962,18.499 280.349,18.840 C280.968,18.989 281.645,19.118 282.381,19.224 C283.117,19.331 283.857,19.491 284.604,19.704 C285.351,19.917 286.033,20.200 286.652,20.552 C287.270,20.904 287.772,21.438 288.156,22.152 C288.540,22.867 288.732,23.736 288.732,24.760 L288.732,26.008 C288.732,27.565 288.289,28.787 287.404,29.672 C286.519,30.558 285.298,31.000 283.741,31.000 ZM268.579,31.000 C268.216,31.000 268.035,30.819 268.035,30.456 L268.035,10.968 C268.035,10.605 268.216,10.424 268.579,10.424 L270.595,10.424 C270.957,10.424 271.139,10.605 271.139,10.968 L271.139,30.456 C271.139,30.819 270.957,31.000 270.595,31.000 L268.579,31.000 ZM259.330,30.456 C259.244,30.819 259.042,31.000 258.722,31.000 L255.554,31.000 C255.191,31.000 254.967,30.819 254.882,30.456 L249.571,11.032 C249.443,10.627 249.603,10.424 250.051,10.424 L252.323,10.424 C252.664,10.424 252.867,10.605 252.931,10.968 L257.058,27.672 L257.186,27.672 L261.281,10.968 C261.367,10.605 261.580,10.424 261.921,10.424 L264.161,10.424 C264.609,10.424 264.779,10.627 264.673,11.032 L259.330,30.456 ZM235.782,31.000 C235.419,31.000 235.238,30.819 235.238,30.456 L235.238,10.968 C235.238,10.605 235.419,10.424 235.782,10.424 L246.021,10.424 C246.361,10.424 246.532,10.605 246.532,10.968 L246.532,12.600 C246.532,12.963 246.361,13.144 246.021,13.144 L238.726,13.144 C238.470,13.144 238.342,13.251 238.342,13.464 L238.342,18.872 C238.342,19.085 238.470,19.192 238.726,19.192 L244.901,19.192 C245.284,19.192 245.477,19.373 245.477,19.736 L245.477,21.368 C245.477,21.731 245.284,21.912 244.901,21.912 L238.726,21.912 C238.470,21.912 238.342,22.019 238.342,22.232 L238.342,27.928 C238.342,28.163 238.470,28.280 238.726,28.280 L246.021,28.280 C246.361,28.280 246.532,28.461 246.532,28.824 L246.532,30.456 C246.532,30.819 246.361,31.000 246.021,31.000 L235.782,31.000 ZM231.089,31.000 L229.105,31.000 C228.593,31.000 228.262,30.819 228.113,30.456 L224.690,23.096 L221.458,23.096 C221.202,23.096 221.074,23.203 221.074,23.416 L221.074,30.456 C221.074,30.819 220.893,31.000 220.530,31.000 L218.515,31.000 C218.152,31.000 217.971,30.819 217.971,30.456 L217.971,10.968 C217.971,10.605 218.152,10.424 218.515,10.424 L226.001,10.424 C227.558,10.424 228.779,10.867 229.665,11.752 C230.550,12.638 230.992,13.859 230.992,15.416 L230.992,18.104 C230.992,20.558 229.979,22.104 227.953,22.744 L227.953,22.872 L231.504,30.360 C231.739,30.787 231.600,31.000 231.089,31.000 ZM227.857,15.512 C227.857,13.934 227.068,13.144 225.489,13.144 L221.426,13.144 C221.191,13.144 221.074,13.251 221.074,13.464 L221.074,20.216 C221.074,20.430 221.191,20.536 221.426,20.536 L225.489,20.536 C227.068,20.536 227.857,19.757 227.857,18.200 L227.857,15.512 ZM201.494,31.000 L198.774,31.000 C197.196,31.000 195.975,30.563 195.111,29.688 C194.247,28.813 193.815,27.598 193.815,26.040 L193.815,25.208 C193.815,24.824 193.996,24.632 194.359,24.632 L196.375,24.632 C196.737,24.632 196.919,24.824 196.919,25.208 L196.919,26.008 C196.919,27.565 197.686,28.344 199.222,28.344 L201.046,28.344 C202.624,28.344 203.414,27.565 203.414,26.008 L203.414,22.776 C203.414,21.816 203.227,21.133 202.854,20.728 C202.480,20.323 201.846,20.120 200.950,20.120 L198.967,20.120 C198.561,20.120 198.225,20.195 197.958,20.344 C197.692,20.494 197.516,20.653 197.431,20.824 C197.196,21.315 196.908,21.560 196.567,21.560 L194.551,21.560 C194.188,21.560 194.007,21.379 194.007,21.016 L194.007,10.968 C194.007,10.605 194.188,10.424 194.551,10.424 L205.397,10.424 C205.781,10.424 205.973,10.605 205.973,10.968 L205.973,12.792 C205.973,13.155 205.781,13.336 205.397,13.336 L197.143,13.336 L197.143,19.160 C197.505,18.115 198.401,17.592 199.830,17.592 L201.718,17.592 C203.254,17.592 204.427,17.992 205.238,18.792 C206.048,19.592 206.453,20.771 206.453,22.328 L206.453,26.040 C206.453,27.598 206.016,28.813 205.141,29.688 C204.266,30.563 203.051,31.000 201.494,31.000 ZM190.312,27.096 L187.977,27.096 L187.977,30.456 C187.977,30.819 187.806,31.000 187.465,31.000 L185.577,31.000 C185.214,31.000 185.033,30.819 185.033,30.456 L185.033,27.096 L176.587,27.096 C175.968,27.096 175.659,26.787 175.659,26.168 L175.659,25.176 C175.659,24.707 175.755,24.291 175.947,23.928 L183.082,11.224 C183.252,10.904 183.412,10.691 183.561,10.584 C183.710,10.478 183.934,10.424 184.233,10.424 L187.049,10.424 C187.667,10.424 187.977,10.733 187.977,11.352 L187.977,24.344 L190.312,24.344 C190.674,24.344 190.856,24.525 190.856,24.888 L190.856,26.488 C190.856,26.894 190.674,27.096 190.312,27.096 ZM185.033,13.016 L178.730,24.344 L185.033,24.344 L185.033,13.016 ZM172.389,27.096 L170.054,27.096 L170.054,30.456 C170.054,30.819 169.883,31.000 169.542,31.000 L167.654,31.000 C167.291,31.000 167.110,30.819 167.110,30.456 L167.110,27.096 L158.664,27.096 C158.045,27.096 157.736,26.787 157.736,26.168 L157.736,25.176 C157.736,24.707 157.832,24.291 158.024,23.928 L165.159,11.224 C165.329,10.904 165.489,10.691 165.639,10.584 C165.788,10.478 166.012,10.424 166.311,10.424 L169.126,10.424 C169.744,10.424 170.054,10.733 170.054,11.352 L170.054,24.344 L172.389,24.344 C172.752,24.344 172.933,24.525 172.933,24.888 L172.933,26.488 C172.933,26.894 172.752,27.096 172.389,27.096 ZM167.110,13.016 L160.808,24.344 L167.110,24.344 L167.110,13.016 ZM154.751,22.072 L148.416,22.072 C148.053,22.072 147.872,21.880 147.872,21.496 L147.872,20.088 C147.872,19.704 148.053,19.512 148.416,19.512 L154.751,19.512 C155.113,19.512 155.295,19.704 155.295,20.088 L155.295,21.496 C155.295,21.880 155.113,22.072 154.751,22.072 ZM140.370,31.000 L136.658,31.000 C135.079,31.000 133.858,30.563 132.995,29.688 C132.131,28.813 131.699,27.598 131.699,26.040 L131.699,15.384 C131.699,13.806 132.131,12.584 132.995,11.720 C133.858,10.856 135.079,10.424 136.658,10.424 L140.370,10.424 C141.926,10.424 143.142,10.856 144.017,11.720 C144.891,12.584 145.329,13.806 145.329,15.384 L145.329,16.920 C145.329,17.304 145.137,17.496 144.753,17.496 L142.737,17.496 C142.374,17.496 142.194,17.304 142.194,16.920 L142.194,15.512 C142.194,13.934 141.426,13.144 139.890,13.144 L137.106,13.144 C135.571,13.144 134.803,13.934 134.803,15.512 L134.803,25.912 C134.803,27.491 135.571,28.280 137.106,28.280 L139.890,28.280 C141.426,28.280 142.194,27.491 142.194,25.912 L142.194,24.504 C142.194,24.120 142.374,23.928 142.737,23.928 L144.753,23.928 C145.137,23.928 145.329,24.120 145.329,24.504 L145.329,26.040 C145.329,27.598 144.891,28.813 144.017,29.688 C143.142,30.563 141.926,31.000 140.370,31.000 ZM128.017,31.000 L126.033,31.000 C125.521,31.000 125.190,30.819 125.041,30.456 L121.618,23.096 L118.386,23.096 C118.130,23.096 118.002,23.203 118.002,23.416 L118.002,30.456 C118.002,30.819 117.821,31.000 117.458,31.000 L115.443,31.000 C115.080,31.000 114.899,30.819 114.899,30.456 L114.899,10.968 C114.899,10.605 115.080,10.424 115.443,10.424 L122.930,10.424 C124.486,10.424 125.708,10.867 126.593,11.752 C127.478,12.638 127.921,13.859 127.921,15.416 L127.921,18.104 C127.921,20.558 126.908,22.104 124.881,22.744 L124.881,22.872 L128.433,30.360 C128.667,30.787 128.528,31.000 128.017,31.000 ZM124.785,15.512 C124.785,13.934 123.996,13.144 122.418,13.144 L118.354,13.144 C118.119,13.144 118.002,13.251 118.002,13.464 L118.002,20.216 C118.002,20.430 118.119,20.536 118.354,20.536 L122.418,20.536 C123.996,20.536 124.785,19.757 124.785,18.200 L124.785,15.512 ZM108.417,31.000 C108.076,31.000 107.798,30.830 107.585,30.488 L99.907,16.728 L99.779,16.728 L99.779,30.456 C99.779,30.819 99.597,31.000 99.235,31.000 L97.251,31.000 C96.888,31.000 96.707,30.819 96.707,30.456 L96.707,10.968 C96.707,10.605 96.888,10.424 97.251,10.424 L99.043,10.424 C99.384,10.424 99.619,10.541 99.747,10.776 L107.489,24.696 L107.617,24.696 L107.617,10.968 C107.617,10.605 107.798,10.424 108.161,10.424 L110.145,10.424 C110.507,10.424 110.689,10.605 110.689,10.968 L110.689,30.456 C110.689,30.819 110.507,31.000 110.145,31.000 L108.417,31.000 ZM92.586,22.072 L86.251,22.072 C85.888,22.072 85.707,21.880 85.707,21.496 L85.707,20.088 C85.707,19.704 85.888,19.512 86.251,19.512 L92.586,19.512 C92.948,19.512 93.130,19.704 93.130,20.088 L93.130,21.496 C93.130,21.880 92.948,22.072 92.586,22.072 ZM83.148,27.096 L80.813,27.096 L80.813,30.456 C80.813,30.819 80.642,31.000 80.301,31.000 L78.413,31.000 C78.050,31.000 77.869,30.819 77.869,30.456 L77.869,27.096 L69.423,27.096 C68.804,27.096 68.495,26.787 68.495,26.168 L68.495,25.176 C68.495,24.707 68.591,24.291 68.783,23.928 L75.918,11.224 C76.088,10.904 76.248,10.691 76.397,10.584 C76.546,10.478 76.771,10.424 77.069,10.424 L79.885,10.424 C80.503,10.424 80.813,10.733 80.813,11.352 L80.813,24.344 L83.148,24.344 C83.511,24.344 83.692,24.525 83.692,24.888 L83.692,26.488 C83.692,26.894 83.511,27.096 83.148,27.096 ZM77.869,13.016 L71.566,24.344 L77.869,24.344 L77.869,13.016 ZM61.120,30.488 C60.992,30.830 60.693,31.000 60.225,31.000 L58.017,31.000 C57.611,31.000 57.515,30.797 57.729,30.392 L64.576,13.304 L56.513,13.304 C56.150,13.304 55.969,13.112 55.969,12.728 L55.969,10.968 C55.969,10.605 56.150,10.424 56.513,10.424 L67.359,10.424 C67.743,10.424 67.935,10.605 67.935,10.968 L67.935,12.952 C67.935,13.293 67.817,13.742 67.583,14.296 L61.120,30.488 ZM46.720,30.488 C46.592,30.830 46.293,31.000 45.824,31.000 L43.616,31.000 C43.211,31.000 43.115,30.797 43.328,30.392 L50.175,13.304 L42.113,13.304 C41.750,13.304 41.569,13.112 41.569,12.728 L41.569,10.968 C41.569,10.605 41.750,10.424 42.113,10.424 L52.959,10.424 C53.343,10.424 53.535,10.605 53.535,10.968 L53.535,12.952 C53.535,13.293 53.417,13.742 53.183,14.296 L46.720,30.488 ZM-0.000,-0.000 L31.994,-0.000 L31.994,32.000 L-0.000,32.000 L-0.000,-0.000 ZM2.000,28.586 L28.581,2.000 L2.000,2.000 L2.000,28.586 ZM29.995,3.414 L3.413,30.000 L29.995,30.000 L29.995,3.414 ZM20.996,43.000 L1.000,43.000 L1.000,39.000 L20.996,39.000 L20.996,43.000 Z"/>
</svg>