<svg 
 xmlns="http://www.w3.org/2000/svg"
 xmlns:xlink="http://www.w3.org/1999/xlink"
 width="1585px" height="182px">
<path fill-rule="evenodd"  fill="rgb(255, 255, 255)"
 d="M155.685,1.000 L155.685,1.999 C168.051,2.000 179.237,7.009 187.342,15.113 C195.445,23.218 200.454,34.404 200.455,46.770 L200.455,180.000 L141.951,180.000 L141.951,47.970 L60.504,47.970 L60.504,180.000 L2.000,180.000 L2.000,1.999 L155.685,1.999 L155.685,1.000 L155.685,-0.000 L-0.000,-0.000 L-0.000,182.000 L62.504,182.000 L62.504,49.970 L139.951,49.970 L139.951,182.000 L202.455,182.000 L202.455,46.770 C202.454,20.939 181.516,0.000 155.685,-0.000 L155.685,1.000 ZM1024.239,48.970 L1025.209,48.729 L1013.059,-0.000 L894.047,-0.000 L848.669,182.000 L911.234,182.000 L944.152,49.970 L1025.519,49.970 L1025.209,48.729 L1024.239,48.970 L1024.239,47.970 L942.589,47.970 L909.671,180.000 L851.228,180.000 L895.609,1.999 L1011.496,1.999 L1023.268,49.212 L1024.239,48.970 L1024.239,47.970 L1024.239,48.970 ZM975.695,96.941 L974.725,97.183 L995.872,182.000 L1058.437,182.000 L1036.980,95.941 L974.416,95.941 L974.725,97.183 L975.695,96.941 L975.695,97.941 L1035.417,97.941 L1055.877,180.000 L997.435,180.000 L976.665,96.699 L975.695,96.941 L975.695,97.941 L975.695,96.941 ZM812.902,1.000 L811.932,0.758 L779.202,132.029 L704.739,132.029 L671.821,-0.000 L609.256,-0.000 L645.794,146.544 C650.990,167.379 669.703,182.000 691.175,182.000 L792.767,182.000 C814.239,182.000 832.953,167.379 838.148,146.544 L874.685,-0.000 L812.121,-0.000 L811.932,0.758 L812.902,1.000 L812.902,1.999 L872.125,1.999 L836.207,146.061 C831.235,166.004 813.321,180.000 792.767,180.000 L691.175,180.000 C670.621,180.000 652.708,166.004 647.735,146.061 L611.816,1.999 L670.258,1.999 L703.176,134.029 L780.765,134.029 L813.873,1.241 L812.902,1.000 L812.902,1.999 L812.902,1.000 ZM1386.056,48.970 L1387.055,48.970 L1387.055,-0.000 L1273.617,-0.000 C1247.786,0.000 1226.847,20.939 1226.847,46.770 L1226.847,135.230 C1226.847,161.060 1247.786,181.999 1273.617,182.000 L1387.055,182.000 L1387.055,132.029 L1289.349,132.029 L1289.349,49.970 L1387.055,49.970 L1387.055,48.970 L1386.056,48.970 L1386.056,47.970 L1287.350,47.970 L1287.350,134.029 L1385.056,134.029 L1385.056,180.000 L1273.617,180.000 C1261.250,179.999 1250.064,174.990 1241.959,166.887 C1233.856,158.782 1228.847,147.596 1228.847,135.230 L1228.847,46.770 C1228.847,34.404 1233.856,23.218 1241.959,15.113 C1250.064,7.009 1261.250,2.000 1273.617,1.999 L1385.056,1.999 L1385.056,48.970 L1386.056,48.970 L1386.056,47.970 L1386.056,48.970 ZM400.379,1.000 L400.379,-0.000 L217.408,-0.000 L217.408,182.000 L401.379,182.000 L401.379,132.029 L279.912,132.029 L279.912,49.970 L401.379,49.970 L401.379,-0.000 L400.379,-0.000 L400.379,1.000 L399.379,1.000 L399.379,47.970 L277.912,47.970 L277.912,134.029 L399.379,134.029 L399.379,180.000 L219.408,180.000 L219.408,1.999 L400.379,1.999 L400.379,1.000 L399.379,1.000 L400.379,1.000 ZM294.316,112.785 L295.316,112.785 L295.316,73.002 L373.120,73.002 L373.120,111.785 L294.316,111.785 L294.316,112.785 L295.316,112.785 L294.316,112.785 L294.316,113.784 L375.120,113.784 L375.120,71.002 L293.316,71.002 L293.316,113.784 L294.316,113.784 L294.316,112.785 ZM762.362,17.944 L762.362,16.944 L720.580,16.944 L720.580,113.344 L763.362,113.344 L763.362,16.944 L762.362,16.944 L762.362,17.944 L761.362,17.944 L761.362,111.344 L722.579,111.344 L722.579,18.943 L762.362,18.943 L762.362,17.944 L761.362,17.944 L762.362,17.944 ZM1523.240,1.000 L1522.240,1.000 L1522.240,71.002 L1461.868,71.002 L1461.868,-0.000 L1399.365,-0.000 L1399.365,182.000 L1461.868,182.000 L1461.868,113.784 L1522.240,113.784 L1522.240,182.000 L1584.743,182.000 L1584.743,-0.000 L1522.240,-0.000 L1522.240,1.000 L1523.240,1.000 L1523.240,1.999 L1582.743,1.999 L1582.743,180.000 L1524.240,180.000 L1524.240,111.785 L1459.868,111.785 L1459.868,180.000 L1401.365,180.000 L1401.365,1.999 L1459.868,1.999 L1459.868,73.002 L1524.240,73.002 L1524.240,1.000 L1523.240,1.000 L1523.240,1.999 L1523.240,1.000 ZM592.394,1.000 L592.394,-0.000 L417.507,-0.000 L417.507,49.970 L478.240,49.970 L478.240,182.000 L540.743,182.000 L540.743,49.970 L605.634,49.970 L593.175,-0.000 L592.394,-0.000 L592.394,1.000 L591.423,1.241 L603.075,47.970 L538.743,47.970 L538.743,180.000 L480.240,180.000 L480.240,47.970 L419.507,47.970 L419.507,1.999 L592.394,1.999 L592.394,1.000 L591.423,1.241 L592.394,1.000 ZM1030.420,1.000 L1029.450,1.241 L1041.600,49.970 L1102.394,49.970 L1102.394,182.000 L1164.897,182.000 L1164.897,49.970 L1218.146,49.970 L1218.146,-0.000 L1029.141,-0.000 L1029.450,1.241 L1030.420,1.000 L1030.420,1.999 L1216.146,1.999 L1216.146,47.970 L1162.897,47.970 L1162.897,180.000 L1104.394,180.000 L1104.394,47.970 L1043.162,47.970 L1031.391,0.758 L1030.420,1.000 L1030.420,1.999 L1030.420,1.000 Z"/>
</svg>